<svg aria-hidden="true" style="position: absolute; width: 0; height: 0; overflow: hidden;" version="1.1" xmlns="http://www.w3.org/2000/svg" xmlns:xlink="http://www.w3.org/1999/xlink">
<defs>
<symbol id="icon-puzGreen" viewBox="0 0 32 32">
<path fill="none" stroke="#1bc088" style="stroke: var(--color1, #1bc088)" stroke-linejoin="miter" stroke-linecap="butt" stroke-miterlimit="4" stroke-width="1.1429" d="M16 0.571c8.521 0 15.429 6.908 15.429 15.429s-6.908 15.429-15.429 15.429c-8.521 0-15.429-6.908-15.429-15.429s6.908-15.429 15.429-15.429z"></path>
<path fill="#1bc088" style="fill: var(--color1, #1bc088)" d="M25.428 14.705h-1.543v-3.962c0-0.525-0.217-1.029-0.602-1.401s-0.909-0.58-1.455-0.58h-4.114v-1.486c0-0.657-0.271-1.287-0.753-1.751s-1.136-0.725-1.818-0.725c-0.682 0-1.336 0.261-1.818 0.725s-0.753 1.094-0.753 1.751v1.486h-4.114c-0.546 0-1.069 0.209-1.455 0.58s-0.603 0.875-0.603 1.401v3.764h1.543c1.543 0 2.777 1.189 2.777 2.674s-1.234 2.674-2.777 2.674h-1.543v3.764c0 0.525 0.217 1.029 0.603 1.401s0.909 0.58 1.455 0.58h3.909v-1.486c0-1.486 1.234-2.674 2.777-2.674s2.777 1.189 2.777 2.674v1.486h3.909c0.546 0 1.069-0.209 1.455-0.58s0.602-0.875 0.602-1.401v-3.962h1.543c0.682 0 1.336-0.261 1.818-0.725s0.753-1.094 0.753-1.751c0-0.657-0.271-1.287-0.753-1.751s-1.136-0.725-1.818-0.725z"></path>
</symbol>
<symbol id="icon-puzYel" viewBox="0 0 32 32">
<path fill="none" stroke="#feac00" style="stroke: var(--color2, #feac00)" stroke-linejoin="miter" stroke-linecap="butt" stroke-miterlimit="4" stroke-width="1.1429" d="M16 0.571c8.521 0 15.429 6.908 15.429 15.429s-6.908 15.429-15.429 15.429c-8.521 0-15.429-6.908-15.429-15.429s6.908-15.429 15.429-15.429z"></path>
<path fill="#feac00" style="fill: var(--color2, #feac00)" d="M25.428 14.705h-1.543v-3.962c0-0.525-0.217-1.029-0.602-1.401s-0.909-0.58-1.455-0.58h-4.114v-1.486c0-0.657-0.271-1.287-0.753-1.751s-1.136-0.725-1.818-0.725c-0.682 0-1.336 0.261-1.818 0.725s-0.753 1.094-0.753 1.751v1.486h-4.114c-0.546 0-1.069 0.209-1.455 0.58s-0.603 0.875-0.603 1.401v3.764h1.543c1.543 0 2.777 1.189 2.777 2.674s-1.234 2.674-2.777 2.674h-1.543v3.764c0 0.525 0.217 1.029 0.603 1.401s0.909 0.58 1.455 0.58h3.909v-1.486c0-1.486 1.234-2.674 2.777-2.674s2.777 1.189 2.777 2.674v1.486h3.909c0.546 0 1.069-0.209 1.455-0.58s0.602-0.875 0.602-1.401v-3.962h1.543c0.682 0 1.336-0.261 1.818-0.725s0.753-1.094 0.753-1.751c0-0.657-0.271-1.287-0.753-1.751s-1.136-0.725-1.818-0.725z"></path>
</symbol>
<symbol id="icon-puzBlue" viewBox="0 0 32 32">
<path fill="none" stroke="#28abe3" style="stroke: var(--color3, #28abe3)" stroke-linejoin="miter" stroke-linecap="butt" stroke-miterlimit="4" stroke-width="1.1429" d="M16 0.571c8.521 0 15.429 6.908 15.429 15.429s-6.908 15.429-15.429 15.429c-8.521 0-15.429-6.908-15.429-15.429s6.908-15.429 15.429-15.429z"></path>
<path fill="#28abe3" style="fill: var(--color3, #28abe3)" d="M25.428 14.705h-1.543v-3.962c0-0.525-0.217-1.029-0.602-1.401s-0.909-0.58-1.455-0.58h-4.114v-1.486c0-0.657-0.271-1.287-0.753-1.751s-1.136-0.725-1.818-0.725c-0.682 0-1.336 0.261-1.818 0.725s-0.753 1.094-0.753 1.751v1.486h-4.114c-0.546 0-1.069 0.209-1.455 0.58s-0.603 0.875-0.603 1.401v3.764h1.543c1.543 0 2.777 1.189 2.777 2.674s-1.234 2.674-2.777 2.674h-1.543v3.764c0 0.525 0.217 1.029 0.603 1.401s0.909 0.58 1.455 0.58h3.909v-1.486c0-1.486 1.234-2.674 2.777-2.674s2.777 1.189 2.777 2.674v1.486h3.909c0.546 0 1.069-0.209 1.455-0.58s0.602-0.875 0.602-1.401v-3.962h1.543c0.682 0 1.336-0.261 1.818-0.725s0.753-1.094 0.753-1.751c0-0.657-0.271-1.287-0.753-1.751s-1.136-0.725-1.818-0.725z"></path>
</symbol>
<symbol id="icon-puzOran" viewBox="0 0 32 32">
<path fill="none" stroke="#fa6900" style="stroke: var(--color4, #fa6900)" stroke-linejoin="miter" stroke-linecap="butt" stroke-miterlimit="4" stroke-width="1.1429" d="M16 0.571c8.521 0 15.429 6.908 15.429 15.429s-6.908 15.429-15.429 15.429c-8.521 0-15.429-6.908-15.429-15.429s6.908-15.429 15.429-15.429z"></path>
<path fill="#fa6900" style="fill: var(--color4, #fa6900)" d="M25.428 14.705h-1.543v-3.962c0-0.525-0.217-1.029-0.602-1.401s-0.909-0.58-1.455-0.58h-4.114v-1.486c0-0.657-0.271-1.287-0.753-1.751s-1.136-0.725-1.818-0.725c-0.682 0-1.336 0.261-1.818 0.725s-0.753 1.094-0.753 1.751v1.486h-4.114c-0.546 0-1.069 0.209-1.455 0.58s-0.603 0.875-0.603 1.401v3.764h1.543c1.543 0 2.777 1.189 2.777 2.674s-1.234 2.674-2.777 2.674h-1.543v3.764c0 0.525 0.217 1.029 0.603 1.401s0.909 0.58 1.455 0.58h3.909v-1.486c0-1.486 1.234-2.674 2.777-2.674s2.777 1.189 2.777 2.674v1.486h3.909c0.546 0 1.069-0.209 1.455-0.58s0.602-0.875 0.602-1.401v-3.962h1.543c0.682 0 1.336-0.261 1.818-0.725s0.753-1.094 0.753-1.751c0-0.657-0.271-1.287-0.753-1.751s-1.136-0.725-1.818-0.725z"></path>
</symbol>
<symbol id="icon-puzP" viewBox="0 0 32 32">
<path fill="none" stroke="#eb65a0" style="stroke: var(--color5, #eb65a0)" stroke-linejoin="miter" stroke-linecap="butt" stroke-miterlimit="4" stroke-width="1.1429" d="M16 0.571c8.521 0 15.429 6.908 15.429 15.429s-6.908 15.429-15.429 15.429c-8.521 0-15.429-6.908-15.429-15.429s6.908-15.429 15.429-15.429z"></path>
<path fill="#eb65a0" style="fill: var(--color5, #eb65a0)" d="M25.428 14.705h-1.543v-3.962c0-0.525-0.217-1.029-0.602-1.401s-0.909-0.58-1.455-0.58h-4.114v-1.486c0-0.657-0.271-1.287-0.753-1.751s-1.136-0.725-1.818-0.725c-0.682 0-1.336 0.261-1.818 0.725s-0.753 1.094-0.753 1.751v1.486h-4.114c-0.546 0-1.069 0.209-1.455 0.58s-0.603 0.875-0.603 1.401v3.764h1.543c1.543 0 2.777 1.189 2.777 2.674s-1.234 2.674-2.777 2.674h-1.543v3.764c0 0.525 0.217 1.029 0.603 1.401s0.909 0.58 1.455 0.58h3.909v-1.486c0-1.486 1.234-2.674 2.777-2.674s2.777 1.189 2.777 2.674v1.486h3.909c0.546 0 1.069-0.209 1.455-0.58s0.602-0.875 0.602-1.401v-3.962h1.543c0.682 0 1.336-0.261 1.818-0.725s0.753-1.094 0.753-1.751c0-0.657-0.271-1.287-0.753-1.751s-1.136-0.725-1.818-0.725z"></path>
</symbol>
<symbol id="icon-puzG" viewBox="0 0 32 32">
<path fill="none" stroke="#5bb02f" style="stroke: var(--color6, #5bb02f)" stroke-linejoin="miter" stroke-linecap="butt" stroke-miterlimit="4" stroke-width="1.1429" d="M16 0.571c8.521 0 15.429 6.908 15.429 15.429s-6.908 15.429-15.429 15.429c-8.521 0-15.429-6.908-15.429-15.429s6.908-15.429 15.429-15.429z"></path>
<path fill="#5bb02f" style="fill: var(--color6, #5bb02f)" d="M25.428 14.705h-1.543v-3.962c0-0.525-0.217-1.029-0.602-1.401s-0.909-0.58-1.455-0.58h-4.114v-1.486c0-0.657-0.271-1.287-0.753-1.751s-1.136-0.725-1.818-0.725c-0.682 0-1.336 0.261-1.818 0.725s-0.753 1.094-0.753 1.751v1.486h-4.114c-0.546 0-1.069 0.209-1.455 0.58s-0.603 0.875-0.603 1.401v3.764h1.543c1.543 0 2.777 1.189 2.777 2.674s-1.234 2.674-2.777 2.674h-1.543v3.764c0 0.525 0.217 1.029 0.603 1.401s0.909 0.58 1.455 0.58h3.909v-1.486c0-1.486 1.234-2.674 2.777-2.674s2.777 1.189 2.777 2.674v1.486h3.909c0.546 0 1.069-0.209 1.455-0.58s0.602-0.875 0.602-1.401v-3.962h1.543c0.682 0 1.336-0.261 1.818-0.725s0.753-1.094 0.753-1.751c0-0.657-0.271-1.287-0.753-1.751s-1.136-0.725-1.818-0.725z"></path>
</symbol>
<symbol id="icon-puzR" viewBox="0 0 32 32">
<path fill="none" stroke="#db403b" style="stroke: var(--color7, #db403b)" stroke-linejoin="miter" stroke-linecap="butt" stroke-miterlimit="4" stroke-width="1.1429" d="M16 0.571c8.521 0 15.429 6.908 15.429 15.429s-6.908 15.429-15.429 15.429c-8.521 0-15.429-6.908-15.429-15.429s6.908-15.429 15.429-15.429z"></path>
<path fill="#db403b" style="fill: var(--color7, #db403b)" d="M25.428 14.705h-1.543v-3.962c0-0.525-0.217-1.029-0.602-1.401s-0.909-0.58-1.455-0.58h-4.114v-1.486c0-0.657-0.271-1.287-0.753-1.751s-1.136-0.725-1.818-0.725c-0.682 0-1.336 0.261-1.818 0.725s-0.753 1.094-0.753 1.751v1.486h-4.114c-0.546 0-1.069 0.209-1.455 0.58s-0.603 0.875-0.603 1.401v3.764h1.543c1.543 0 2.777 1.189 2.777 2.674s-1.234 2.674-2.777 2.674h-1.543v3.764c0 0.525 0.217 1.029 0.603 1.401s0.909 0.58 1.455 0.58h3.909v-1.486c0-1.486 1.234-2.674 2.777-2.674s2.777 1.189 2.777 2.674v1.486h3.909c0.546 0 1.069-0.209 1.455-0.58s0.602-0.875 0.602-1.401v-3.962h1.543c0.682 0 1.336-0.261 1.818-0.725s0.753-1.094 0.753-1.751c0-0.657-0.271-1.287-0.753-1.751s-1.136-0.725-1.818-0.725z"></path>
</symbol>
<symbol id="icon-Star" viewBox="0 0 34 32">
<path fill="#fbb52d" style="fill: var(--color8, #fbb52d)" d="M15.256 1.441c0.503-1.548 2.692-1.548 3.195 0l2.739 8.431c0.225 0.692 0.87 1.161 1.598 1.161h8.865c1.627 0 2.304 2.082 0.987 3.039l-7.172 5.211c-0.589 0.428-0.835 1.186-0.61 1.878l2.739 8.431c0.503 1.548-1.268 2.834-2.585 1.878l-7.172-5.211c-0.589-0.428-1.386-0.428-1.975 0l-7.172 5.211c-1.316 0.956-3.088-0.33-2.585-1.878l2.739-8.431c0.225-0.692-0.021-1.45-0.61-1.878l-7.172-5.211c-1.316-0.957-0.64-3.039 0.987-3.039h8.865c0.728 0 1.373-0.469 1.598-1.161l2.739-8.431z"></path>
</symbol>
<symbol id="icon-Arrow_up" viewBox="0 0 32 32">
<path fill="#fa6900" style="fill: var(--color4, #fa6900); stroke: var(--color9, #fbdcc5)" stroke="#fbdcc5" stroke-linejoin="miter" stroke-linecap="butt" stroke-miterlimit="4" stroke-width="5.7143" d="M29.143 16c0 7.259-5.884 13.143-13.143 13.143s-13.143-5.884-13.143-13.143c0-7.259 5.884-13.143 13.143-13.143s13.143 5.884 13.143 13.143z"></path>
<path fill="#e9ecf3" style="fill: var(--color10, #e9ecf3)" d="M9.7 20h12.6c0.128-0 0.253-0.034 0.362-0.097s0.198-0.154 0.257-0.261c0.059-0.108 0.087-0.229 0.079-0.351s-0.050-0.239-0.122-0.339l-6.3-8.682c-0.261-0.36-0.89-0.36-1.152 0l-6.3 8.682c-0.073 0.1-0.116 0.218-0.124 0.339s0.019 0.243 0.079 0.351c0.059 0.108 0.149 0.198 0.258 0.262s0.235 0.096 0.363 0.096zM16.001 11.823l4.965 6.841h-9.929l4.964-6.841z"></path>
</symbol>
<symbol id="icon-Vector" viewBox="0 0 45 32">
<path fill="#e9ecf3" style="fill: var(--color10, #e9ecf3)" d="M2.241 32h40.321c0.408-0.001 0.808-0.109 1.157-0.311s0.634-0.491 0.823-0.836c0.19-0.345 0.277-0.733 0.253-1.121s-0.159-0.764-0.39-1.085l-20.161-27.783c-0.836-1.152-2.847-1.152-3.685 0l-20.161 27.783c-0.233 0.32-0.37 0.696-0.396 1.085s0.061 0.778 0.251 1.124c0.19 0.346 0.475 0.635 0.825 0.837s0.751 0.308 1.16 0.307zM22.402 5.835l15.886 21.891h-31.773l15.887-21.891z"></path>
</symbol>
<symbol id="icon-arrow_right" viewBox="0 0 32 32">
<path fill="#ec639f" style="fill: var(--color11, #ec639f)" d="M32 16c0 8.847-7.153 16-16 16s-16-7.153-16-16c0-8.847 7.153-16 16-16s16 7.153 16 16zM1.882 16c0 7.812 6.306 14.118 14.118 14.118s14.118-6.306 14.118-14.118-6.306-14.118-14.118-14.118c-7.812 0-14.118 6.306-14.118 14.118z"></path>
<path fill="#ec639f" style="fill: var(--color11, #ec639f)" d="M14.321 24.921c-0.395-0.388-0.395-1.025 0-1.412l6.199-6.081c0.799-0.784 0.799-2.072 0-2.856l-6.199-6.080c-0.395-0.388-0.395-1.025 0-1.412 0.385-0.377 1.001-0.377 1.385 0l7.639 7.493c0.799 0.784 0.799 2.072 0 2.856l-7.639 7.493c-0.385 0.377-1.001 0.377-1.385 0z"></path>
<path fill="#ec639f" style="fill: var(--color11, #ec639f)" d="M21.598 15.2c0.442 0 0.8 0.358 0.8 0.8s-0.358 0.8-0.8 0.8h-14.4c-0.442 0-0.8-0.358-0.8-0.8s0.358-0.8 0.8-0.8h14.4z"></path>
</symbol>
<symbol id="icon-arrow_left" viewBox="0 0 32 32">
<path fill="#f1b0cc" style="fill: var(--color12, #f1b0cc)" d="M0 16c0-8.847 7.153-16 16-16s16 7.153 16 16c0 8.847-7.153 16-16 16s-16-7.153-16-16zM30.118 16c0-7.812-6.306-14.118-14.118-14.118s-14.118 6.306-14.118 14.118c0 7.812 6.306 14.118 14.118 14.118s14.118-6.306 14.118-14.118z"></path>
<path fill="#f1b0cc" style="fill: var(--color12, #f1b0cc)" d="M17.679 7.080c0.395 0.388 0.395 1.025 0 1.412l-6.199 6.080c-0.799 0.784-0.799 2.072 0 2.856l6.199 6.081c0.395 0.388 0.395 1.024 0 1.412-0.385 0.377-1.001 0.377-1.385 0l-7.639-7.493c-0.799-0.784-0.799-2.072 0-2.856l7.639-7.493c0.385-0.377 1.001-0.377 1.385 0z"></path>
<path fill="#f1b0cc" style="fill: var(--color12, #f1b0cc)" d="M10.402 16.8c-0.442 0-0.8-0.358-0.8-0.8s0.358-0.8 0.8-0.8h14.4c0.442 0 0.8 0.358 0.8 0.8s-0.358 0.8-0.8 0.8h-14.4z"></path>
</symbol>
<symbol id="icon-Logo" viewBox="0 0 32 32">
<path fill="#d62845" style="fill: var(--color13, #d62845)" d="M4.267 0.067h23.468c2.32 0 4.2 1.88 4.2 4.2v23.468c0 2.32-1.88 4.2-4.2 4.2h-23.468c-2.32 0-4.2-1.88-4.2-4.2v-23.468c0-2.32 1.88-4.2 4.2-4.2z"></path>
<path fill="#fecfb3" style="fill: var(--color14, #fecfb3)" d="M25.602 9.734c0 1.841-1.492 3.333-3.333 3.333s-3.333-1.492-3.333-3.333c0-1.841 1.492-3.333 3.333-3.333s3.333 1.492 3.333 3.333z"></path>
<path fill="#ccc" style="fill: var(--color15, #ccc)" d="M6.935 6.934h6.133v6.133h-6.133v-6.133z"></path>
<path fill="#fecfb3" style="fill: var(--color14, #fecfb3)" d="M21.201 19.201v-6.667h2.133v6.667h-2.133z"></path>
<path fill="#ffaa96" style="fill: var(--color16, #ffaa96)" d="M12.667 21.201h6.667v2.133h-6.667v-2.133z"></path>
<path fill="#e6887e" style="fill: var(--color17, #e6887e)" d="M13.068 22.267c0 1.841-1.492 3.333-3.333 3.333s-3.333-1.492-3.333-3.333c0-1.841 1.492-3.333 3.333-3.333s3.333 1.492 3.333 3.333z"></path>
<path fill="#ffaa96" style="fill: var(--color16, #ffaa96)" d="M25.602 22.267c0 1.841-1.492 3.333-3.333 3.333s-3.333-1.492-3.333-3.333c0-1.841 1.492-3.333 3.333-3.333s3.333 1.492 3.333 3.333z"></path>
</symbol>
<symbol id="icon-close" viewBox="0 0 32 32">
<path fill="#d62845" style="fill: var(--color13, #d62845)" d="M31.291 0.733c-0.225-0.225-0.491-0.404-0.785-0.525s-0.608-0.184-0.926-0.184-0.633 0.063-0.926 0.184c-0.294 0.122-0.56 0.3-0.785 0.525l-11.869 11.845-11.869-11.869c-0.225-0.225-0.491-0.403-0.785-0.525s-0.608-0.184-0.926-0.184c-0.318 0-0.632 0.063-0.926 0.184s-0.56 0.3-0.785 0.525c-0.225 0.225-0.403 0.492-0.525 0.785s-0.184 0.608-0.184 0.926c0 0.318 0.063 0.632 0.184 0.926s0.3 0.56 0.525 0.785l11.869 11.869-11.869 11.869c-0.225 0.225-0.403 0.492-0.525 0.785s-0.184 0.608-0.184 0.926c0 0.318 0.063 0.632 0.184 0.926s0.3 0.56 0.525 0.785c0.225 0.225 0.492 0.403 0.785 0.525s0.608 0.184 0.926 0.184c0.318 0 0.632-0.063 0.926-0.184s0.56-0.3 0.785-0.525l11.869-11.869 11.869 11.869c0.225 0.225 0.492 0.403 0.785 0.525s0.608 0.184 0.926 0.184c0.318 0 0.632-0.063 0.926-0.184s0.56-0.3 0.785-0.525c0.225-0.225 0.403-0.491 0.525-0.785s0.184-0.608 0.184-0.926c0-0.318-0.063-0.632-0.184-0.926s-0.3-0.56-0.525-0.785l-11.869-11.869 11.869-11.869c0.922-0.922 0.922-2.476 0-3.398z"></path>
</symbol>
<symbol id="icon-gg_menu" viewBox="0 0 32 32">
<path fill="#d62845" style="fill: var(--color13, #d62845)" d="M2.667 8c0-0.354 0.14-0.693 0.391-0.943s0.589-0.391 0.943-0.391h24c0.354 0 0.693 0.14 0.943 0.391s0.391 0.589 0.391 0.943c0 0.354-0.14 0.693-0.391 0.943s-0.589 0.391-0.943 0.391h-24c-0.354 0-0.693-0.14-0.943-0.391s-0.391-0.589-0.391-0.943zM2.667 16.043c0-0.354 0.14-0.693 0.391-0.943s0.589-0.391 0.943-0.391h24c0.354 0 0.693 0.14 0.943 0.391s0.391 0.589 0.391 0.943c0 0.354-0.14 0.693-0.391 0.943s-0.589 0.391-0.943 0.391h-24c-0.354 0-0.693-0.14-0.943-0.391s-0.391-0.589-0.391-0.943zM4 22.753c-0.354 0-0.693 0.14-0.943 0.391s-0.391 0.589-0.391 0.943c0 0.354 0.14 0.693 0.391 0.943s0.589 0.391 0.943 0.391h24c0.354 0 0.693-0.14 0.943-0.391s0.391-0.589 0.391-0.943c0-0.354-0.14-0.693-0.391-0.943s-0.589-0.391-0.943-0.391h-24z"></path>
</symbol>
<symbol id="icon-puzzle1-icon" viewBox="0 0 17 32">
<path fill="#fea9dc" style="fill: var(--color18, #fea9dc)" opacity="0.5" d="M-11.036 13.028c0.099-0.005 0.197 0.015 0.285 0.059s0.163 0.109 0.219 0.191c0.343 0.505 0.812 0.908 1.361 1.17s1.158 0.373 1.768 0.323c0.61-0.050 1.199-0.26 1.709-0.61s0.923-0.825 1.198-1.381c0.258-0.521 0.387-1.095 0.375-1.673s-0.163-1.142-0.441-1.642c-0.278-0.501-0.674-0.923-1.154-1.229s-1.029-0.489-1.599-0.531c-0.098-0.007-0.193-0.039-0.275-0.093s-0.149-0.129-0.194-0.216c-0.045-0.088-0.067-0.186-0.065-0.286s0.030-0.197 0.081-0.284l3.167-5.486c0.236-0.409 0.622-0.709 1.072-0.835s0.929-0.066 1.329 0.165l5.164 2.981c0.18-0.633 0.488-1.223 0.904-1.733s0.931-0.929 1.513-1.23c0.581-0.301 1.216-0.477 1.865-0.518s1.295 0.055 1.9 0.281c0.605 0.226 1.155 0.578 1.614 1.033s0.818 1.003 1.054 1.609c0.236 0.606 0.343 1.258 0.316 1.913s-0.19 1.3-0.477 1.892c-0.226 0.464-0.523 0.89-0.881 1.261l5.164 2.981c0.401 0.231 0.691 0.616 0.808 1.069s0.049 0.937-0.187 1.346l-2.744 4.753c0.623 0.171 1.202 0.472 1.7 0.884s0.904 0.925 1.192 1.507c0.288 0.582 0.452 1.221 0.481 1.875s-0.077 1.309-0.311 1.925c-0.234 0.615-0.592 1.176-1.050 1.648s-1.007 0.844-1.612 1.093c-0.604 0.249-1.251 0.368-1.9 0.352s-1.284-0.17-1.866-0.449c-0.456-0.219-0.872-0.512-1.233-0.868l-2.744 4.753c-0.236 0.409-0.622 0.709-1.072 0.835s-0.929 0.066-1.329-0.166l-18.136-10.471c-0.401-0.231-0.691-0.616-0.808-1.069s-0.049-0.937 0.187-1.346l3.166-5.484c0.050-0.087 0.121-0.16 0.206-0.212s0.181-0.082 0.279-0.087zM-13.679 19.393c-0.079 0.136-0.101 0.298-0.062 0.449s0.136 0.279 0.269 0.356l18.136 10.471c0.134 0.077 0.293 0.097 0.443 0.055s0.279-0.142 0.357-0.278l3.166-5.485c0.050-0.087 0.121-0.16 0.206-0.212s0.181-0.082 0.279-0.087c0.098-0.005 0.196 0.015 0.284 0.059s0.163 0.109 0.219 0.19c0.321 0.473 0.754 0.858 1.259 1.12s1.070 0.394 1.642 0.385c0.573-0.009 1.137-0.16 1.643-0.44s0.939-0.678 1.261-1.162c0.344-0.516 0.55-1.112 0.597-1.728s-0.065-1.232-0.327-1.785c-0.261-0.553-0.663-1.026-1.164-1.37s-1.085-0.549-1.694-0.593c-0.098-0.007-0.192-0.040-0.274-0.094s-0.148-0.129-0.193-0.216c-0.045-0.088-0.067-0.186-0.064-0.285s0.030-0.197 0.080-0.284l3.167-5.486c0.079-0.136 0.101-0.298 0.062-0.449s-0.136-0.279-0.269-0.356l-5.88-3.395c-0.085-0.049-0.156-0.119-0.206-0.204s-0.079-0.181-0.082-0.281c-0.003-0.099 0.018-0.199 0.063-0.288s0.111-0.167 0.193-0.224c0.474-0.333 0.862-0.776 1.131-1.291s0.409-1.087 0.41-1.665c0-0.578-0.139-1.145-0.407-1.652s-0.655-0.937-1.129-1.254c-0.505-0.339-1.092-0.536-1.701-0.574s-1.221 0.087-1.773 0.361c-0.553 0.274-1.027 0.687-1.377 1.2s-0.562 1.106-0.617 1.722c-0.009 0.099-0.042 0.195-0.098 0.279s-0.13 0.152-0.218 0.199c-0.088 0.047-0.186 0.071-0.284 0.070s-0.195-0.028-0.28-0.077l-5.88-3.395c-0.134-0.077-0.293-0.097-0.443-0.055s-0.279 0.142-0.357 0.278l-2.744 4.753c0.489 0.134 0.951 0.347 1.371 0.63 0.529 0.366 0.976 0.841 1.311 1.393s0.552 1.171 0.637 1.817c0.085 0.646 0.036 1.305-0.144 1.935s-0.486 1.219-0.9 1.728c-0.414 0.509-0.927 0.927-1.505 1.229s-1.211 0.48-1.857 0.523c-0.646 0.043-1.291-0.049-1.896-0.271s-1.154-0.569-1.615-1.019l-2.744 4.753z"></path>
</symbol>
<symbol id="icon-puzzle-icon" viewBox="0 0 33 32">
<path fill="#aecaf5" style="fill: var(--color19, #aecaf5)" opacity="0.25" d="M28.808 6.9c0.967-1.58 0.668-3.953-2.178-5.694-2.506-1.533-4.971-1.288-6.132 0.61-0.678 1.108-0.536 1.889-0.443 2.406 0.050 0.273 0.065 0.391 0.016 0.471-0.081 0.132-0.129 0.211-0.596-0.050l-4.982-3.048c-1.916-1.172-4.526-0.682-5.585 1.049l-1.855 3.032c-0.438 0.786-0.294 1.529 0.376 1.94 0.382 0.233 0.797 0.189 1.2 0.147 0.539-0.055 1.15-0.119 1.967 0.38 1.386 0.848 2.163 2.888 0.871 4.999-1.307 2.136-3.711 2.711-5.052 1.891-0.809-0.495-1.019-1.102-1.205-1.638-0.139-0.402-0.282-0.818-0.672-1.056-0.67-0.41-1.398-0.2-1.908 0.564l-2.039 3.332c-1.11 1.816-0.407 4.519 1.476 5.67l5.008 3.064c0.777 0.433 1.538 0.288 1.941-0.371 0.242-0.396 0.171-0.788 0.108-1.135-0.085-0.464-0.171-0.942 0.318-1.742 0.878-1.435 2.755-1.56 4.782-0.32s2.771 2.969 1.893 4.404c-0.489 0.799-0.955 0.939-1.406 1.076-0.337 0.102-0.72 0.217-0.962 0.613-0.409 0.668-0.196 1.394 0.571 1.907l3.219 1.971c1.758 1.076 3.821 0.465 5.014-1.485l2.311-3.778c0.082-0.086 0.565-0.311 0.949-0.076 0.078 0.048 0.119 0.161 0.2 0.425 0.153 0.503 0.384 1.264 1.497 1.945 1.785 1.091 4.424 0.837 6.016-1.765 1.717-2.806 0.844-5.066-0.783-6.061-1.098-0.672-2.037-0.561-2.659-0.488-0.276 0.032-0.535 0.063-0.635 0.002-0.385-0.235-0.404-0.77-0.372-0.865l0.010-0.020 1.781-2.911c1.207-1.973 0.827-4.174-0.904-5.233l-3.204-1.96-0.031-0.022c-0.422-0.28-0.373-0.359-0.293-0.491 0.049-0.080 0.161-0.119 0.427-0.2 0.503-0.151 1.264-0.381 1.942-1.489zM26.584 7.476c-0.337 0.102-0.721 0.218-0.963 0.614-0.273 0.447-0.397 1.11 0.567 1.773l0.055 0.038 3.225 1.973c1.425 0.872 1.373 2.633 0.585 3.922l-1.805 2.951c-0.018 0.029-0.041 0.054-0.052 0.085-0.229 0.542-0.027 1.59 0.757 2.070 0.384 0.235 0.803 0.185 1.249 0.133 0.576-0.068 1.23-0.145 2.044 0.353 1.489 0.911 1.671 2.775 0.463 4.749-1.324 2.164-3.365 2.269-4.701 1.451-0.8-0.489-0.942-0.955-1.080-1.405-0.103-0.338-0.22-0.721-0.617-0.964-0.784-0.48-1.81-0.182-2.188 0.269-0.023 0.024-0.034 0.056-0.052 0.085l-2.333 3.813c-0.761 1.244-2.202 2.088-3.701 1.171l-3.204-1.96c-0.453-0.303-0.322-0.516-0.267-0.606 0.048-0.079 0.161-0.119 0.427-0.2 0.503-0.152 1.264-0.381 1.942-1.489 0.967-1.58 0.658-3.96-2.213-5.716-2.485-1.52-4.935-1.266-6.096 0.632-0.678 1.108-0.536 1.889-0.442 2.407 0.049 0.272 0.065 0.391 0.016 0.471-0.056 0.091-0.186 0.304-0.645 0.048l-4.991-3.054c-1.403-0.858-1.975-3.017-1.155-4.358l2.029-3.316c0.302-0.453 0.513-0.323 0.604-0.268 0.095 0.058 0.177 0.297 0.266 0.551 0.202 0.584 0.508 1.469 1.611 2.144 1.762 1.078 4.741 0.45 6.365-2.204 1.614-2.639 0.591-5.221-1.191-6.311-1.095-0.67-1.981-0.578-2.568-0.516-0.266 0.028-0.496 0.051-0.599-0.012-0.090-0.055-0.301-0.184-0.046-0.644l1.845-3.016c0.879-1.436 2.957-1.54 4.271-0.736l5.035 3.078c1.032 0.58 1.579 0.16 1.857-0.293 0.242-0.396 0.171-0.788 0.108-1.135-0.085-0.464-0.171-0.942 0.318-1.742 0.864-1.413 2.8-1.532 4.818-0.298 2.006 1.227 2.735 2.947 1.858 4.382-0.489 0.799-0.956 0.94-1.406 1.077z"></path>
</symbol>

<symbol id="icon-orange-wave" viewBox="0 0 427 32">
<path fill="blue" d="M-113.776-49.185c0 0 52.158 9.478 52.158 30.132s38.799 33.304 64.817 41.233c26.474 7.929 52.492 1.586 78.51-4.758s50.313-16.42 76.331-14.834c26.017 1.586 54.215 14.834 80.233 21.177 26.017 6.344 52.036 9.515 78.053 4.758s52.036-17.445 78.511-20.617c26.017-3.172 52.036 3.172 64.816 6.344l13.237 3.172v-66.608h-13.237c-12.78 0-38.799 0-64.816 0-26.475 0-52.493 0-78.511 0s-52.036 0-78.053 0c-26.019 0-52.492 0-78.511 0-26.017 0-52.036 0-78.054 0s-52.036 0-78.51 0c-26.018 0-52.036 0-64.817 0h-52.158z"></path>
</symbol>
</defs>
</svg>
