<svg aria-hidden="true" style="position: absolute; width: 0; height: 0; overflow: hidden;" version="1.1" xmlns="http://www.w3.org/2000/svg" xmlns:xlink="http://www.w3.org/1999/xlink">
<defs>



<symbol id="icon-Star" viewBox="0 0 34 32">
<path fill="#fbb52d" style="fill: var(--color8, #fbb52d)" d="M15.256 1.441c0.503-1.548 2.692-1.548 3.195 0l2.739 8.431c0.225 0.692 0.87 1.161 1.598 1.161h8.865c1.627 0 2.304 2.082 0.987 3.039l-7.172 5.211c-0.589 0.428-0.835 1.186-0.61 1.878l2.739 8.431c0.503 1.548-1.268 2.834-2.585 1.878l-7.172-5.211c-0.589-0.428-1.386-0.428-1.975 0l-7.172 5.211c-1.316 0.956-3.088-0.33-2.585-1.878l2.739-8.431c0.225-0.692-0.021-1.45-0.61-1.878l-7.172-5.211c-1.316-0.957-0.64-3.039 0.987-3.039h8.865c0.728 0 1.373-0.469 1.598-1.161l2.739-8.431z"></path>
</symbol>

<symbol id="icon-Vector" viewBox="0 0 45 32">
<path fill="#e9ecf3" style="fill: var(--color10, #e9ecf3)" d="M2.241 32h40.321c0.408-0.001 0.808-0.109 1.157-0.311s0.634-0.491 0.823-0.836c0.19-0.345 0.277-0.733 0.253-1.121s-0.159-0.764-0.39-1.085l-20.161-27.783c-0.836-1.152-2.847-1.152-3.685 0l-20.161 27.783c-0.233 0.32-0.37 0.696-0.396 1.085s0.061 0.778 0.251 1.124c0.19 0.346 0.475 0.635 0.825 0.837s0.751 0.308 1.16 0.307zM22.402 5.835l15.886 21.891h-31.773l15.887-21.891z"></path>
</symbol>

<symbol id="icon-puzzle1-icon" viewBox="0 0 17 32">
<path fill="#fea9dc" style="fill: var(--color18, #fea9dc)" opacity="0.5" d="M-11.036 13.028c0.099-0.005 0.197 0.015 0.285 0.059s0.163 0.109 0.219 0.191c0.343 0.505 0.812 0.908 1.361 1.17s1.158 0.373 1.768 0.323c0.61-0.050 1.199-0.26 1.709-0.61s0.923-0.825 1.198-1.381c0.258-0.521 0.387-1.095 0.375-1.673s-0.163-1.142-0.441-1.642c-0.278-0.501-0.674-0.923-1.154-1.229s-1.029-0.489-1.599-0.531c-0.098-0.007-0.193-0.039-0.275-0.093s-0.149-0.129-0.194-0.216c-0.045-0.088-0.067-0.186-0.065-0.286s0.030-0.197 0.081-0.284l3.167-5.486c0.236-0.409 0.622-0.709 1.072-0.835s0.929-0.066 1.329 0.165l5.164 2.981c0.18-0.633 0.488-1.223 0.904-1.733s0.931-0.929 1.513-1.23c0.581-0.301 1.216-0.477 1.865-0.518s1.295 0.055 1.9 0.281c0.605 0.226 1.155 0.578 1.614 1.033s0.818 1.003 1.054 1.609c0.236 0.606 0.343 1.258 0.316 1.913s-0.19 1.3-0.477 1.892c-0.226 0.464-0.523 0.89-0.881 1.261l5.164 2.981c0.401 0.231 0.691 0.616 0.808 1.069s0.049 0.937-0.187 1.346l-2.744 4.753c0.623 0.171 1.202 0.472 1.7 0.884s0.904 0.925 1.192 1.507c0.288 0.582 0.452 1.221 0.481 1.875s-0.077 1.309-0.311 1.925c-0.234 0.615-0.592 1.176-1.050 1.648s-1.007 0.844-1.612 1.093c-0.604 0.249-1.251 0.368-1.9 0.352s-1.284-0.17-1.866-0.449c-0.456-0.219-0.872-0.512-1.233-0.868l-2.744 4.753c-0.236 0.409-0.622 0.709-1.072 0.835s-0.929 0.066-1.329-0.166l-18.136-10.471c-0.401-0.231-0.691-0.616-0.808-1.069s-0.049-0.937 0.187-1.346l3.166-5.484c0.050-0.087 0.121-0.16 0.206-0.212s0.181-0.082 0.279-0.087zM-13.679 19.393c-0.079 0.136-0.101 0.298-0.062 0.449s0.136 0.279 0.269 0.356l18.136 10.471c0.134 0.077 0.293 0.097 0.443 0.055s0.279-0.142 0.357-0.278l3.166-5.485c0.050-0.087 0.121-0.16 0.206-0.212s0.181-0.082 0.279-0.087c0.098-0.005 0.196 0.015 0.284 0.059s0.163 0.109 0.219 0.19c0.321 0.473 0.754 0.858 1.259 1.12s1.070 0.394 1.642 0.385c0.573-0.009 1.137-0.16 1.643-0.44s0.939-0.678 1.261-1.162c0.344-0.516 0.55-1.112 0.597-1.728s-0.065-1.232-0.327-1.785c-0.261-0.553-0.663-1.026-1.164-1.37s-1.085-0.549-1.694-0.593c-0.098-0.007-0.192-0.040-0.274-0.094s-0.148-0.129-0.193-0.216c-0.045-0.088-0.067-0.186-0.064-0.285s0.030-0.197 0.080-0.284l3.167-5.486c0.079-0.136 0.101-0.298 0.062-0.449s-0.136-0.279-0.269-0.356l-5.88-3.395c-0.085-0.049-0.156-0.119-0.206-0.204s-0.079-0.181-0.082-0.281c-0.003-0.099 0.018-0.199 0.063-0.288s0.111-0.167 0.193-0.224c0.474-0.333 0.862-0.776 1.131-1.291s0.409-1.087 0.41-1.665c0-0.578-0.139-1.145-0.407-1.652s-0.655-0.937-1.129-1.254c-0.505-0.339-1.092-0.536-1.701-0.574s-1.221 0.087-1.773 0.361c-0.553 0.274-1.027 0.687-1.377 1.2s-0.562 1.106-0.617 1.722c-0.009 0.099-0.042 0.195-0.098 0.279s-0.13 0.152-0.218 0.199c-0.088 0.047-0.186 0.071-0.284 0.070s-0.195-0.028-0.28-0.077l-5.88-3.395c-0.134-0.077-0.293-0.097-0.443-0.055s-0.279 0.142-0.357 0.278l-2.744 4.753c0.489 0.134 0.951 0.347 1.371 0.63 0.529 0.366 0.976 0.841 1.311 1.393s0.552 1.171 0.637 1.817c0.085 0.646 0.036 1.305-0.144 1.935s-0.486 1.219-0.9 1.728c-0.414 0.509-0.927 0.927-1.505 1.229s-1.211 0.48-1.857 0.523c-0.646 0.043-1.291-0.049-1.896-0.271s-1.154-0.569-1.615-1.019l-2.744 4.753z"></path>
</symbol>
<symbol id="icon-puzzle-icon" viewBox="0 0 33 32">
<path fill="#aecaf5" style="fill: var(--color19, #aecaf5)" opacity="0.25" d="M28.808 6.9c0.967-1.58 0.668-3.953-2.178-5.694-2.506-1.533-4.971-1.288-6.132 0.61-0.678 1.108-0.536 1.889-0.443 2.406 0.050 0.273 0.065 0.391 0.016 0.471-0.081 0.132-0.129 0.211-0.596-0.050l-4.982-3.048c-1.916-1.172-4.526-0.682-5.585 1.049l-1.855 3.032c-0.438 0.786-0.294 1.529 0.376 1.94 0.382 0.233 0.797 0.189 1.2 0.147 0.539-0.055 1.15-0.119 1.967 0.38 1.386 0.848 2.163 2.888 0.871 4.999-1.307 2.136-3.711 2.711-5.052 1.891-0.809-0.495-1.019-1.102-1.205-1.638-0.139-0.402-0.282-0.818-0.672-1.056-0.67-0.41-1.398-0.2-1.908 0.564l-2.039 3.332c-1.11 1.816-0.407 4.519 1.476 5.67l5.008 3.064c0.777 0.433 1.538 0.288 1.941-0.371 0.242-0.396 0.171-0.788 0.108-1.135-0.085-0.464-0.171-0.942 0.318-1.742 0.878-1.435 2.755-1.56 4.782-0.32s2.771 2.969 1.893 4.404c-0.489 0.799-0.955 0.939-1.406 1.076-0.337 0.102-0.72 0.217-0.962 0.613-0.409 0.668-0.196 1.394 0.571 1.907l3.219 1.971c1.758 1.076 3.821 0.465 5.014-1.485l2.311-3.778c0.082-0.086 0.565-0.311 0.949-0.076 0.078 0.048 0.119 0.161 0.2 0.425 0.153 0.503 0.384 1.264 1.497 1.945 1.785 1.091 4.424 0.837 6.016-1.765 1.717-2.806 0.844-5.066-0.783-6.061-1.098-0.672-2.037-0.561-2.659-0.488-0.276 0.032-0.535 0.063-0.635 0.002-0.385-0.235-0.404-0.77-0.372-0.865l0.010-0.020 1.781-2.911c1.207-1.973 0.827-4.174-0.904-5.233l-3.204-1.96-0.031-0.022c-0.422-0.28-0.373-0.359-0.293-0.491 0.049-0.080 0.161-0.119 0.427-0.2 0.503-0.151 1.264-0.381 1.942-1.489zM26.584 7.476c-0.337 0.102-0.721 0.218-0.963 0.614-0.273 0.447-0.397 1.11 0.567 1.773l0.055 0.038 3.225 1.973c1.425 0.872 1.373 2.633 0.585 3.922l-1.805 2.951c-0.018 0.029-0.041 0.054-0.052 0.085-0.229 0.542-0.027 1.59 0.757 2.070 0.384 0.235 0.803 0.185 1.249 0.133 0.576-0.068 1.23-0.145 2.044 0.353 1.489 0.911 1.671 2.775 0.463 4.749-1.324 2.164-3.365 2.269-4.701 1.451-0.8-0.489-0.942-0.955-1.080-1.405-0.103-0.338-0.22-0.721-0.617-0.964-0.784-0.48-1.81-0.182-2.188 0.269-0.023 0.024-0.034 0.056-0.052 0.085l-2.333 3.813c-0.761 1.244-2.202 2.088-3.701 1.171l-3.204-1.96c-0.453-0.303-0.322-0.516-0.267-0.606 0.048-0.079 0.161-0.119 0.427-0.2 0.503-0.152 1.264-0.381 1.942-1.489 0.967-1.58 0.658-3.96-2.213-5.716-2.485-1.52-4.935-1.266-6.096 0.632-0.678 1.108-0.536 1.889-0.442 2.407 0.049 0.272 0.065 0.391 0.016 0.471-0.056 0.091-0.186 0.304-0.645 0.048l-4.991-3.054c-1.403-0.858-1.975-3.017-1.155-4.358l2.029-3.316c0.302-0.453 0.513-0.323 0.604-0.268 0.095 0.058 0.177 0.297 0.266 0.551 0.202 0.584 0.508 1.469 1.611 2.144 1.762 1.078 4.741 0.45 6.365-2.204 1.614-2.639 0.591-5.221-1.191-6.311-1.095-0.67-1.981-0.578-2.568-0.516-0.266 0.028-0.496 0.051-0.599-0.012-0.090-0.055-0.301-0.184-0.046-0.644l1.845-3.016c0.879-1.436 2.957-1.54 4.271-0.736l5.035 3.078c1.032 0.58 1.579 0.16 1.857-0.293 0.242-0.396 0.171-0.788 0.108-1.135-0.085-0.464-0.171-0.942 0.318-1.742 0.864-1.413 2.8-1.532 4.818-0.298 2.006 1.227 2.735 2.947 1.858 4.382-0.489 0.799-0.956 0.94-1.406 1.077z"></path>
<path fill="red" d="M28.808 6.9c0.967-1.58 0.668-3.953-2.178-5.694-2.506-1.533-4.971-1.288-6.132 0.61-0.678 1.108-0.536 1.889-0.443 2.406 0.050 0.273 0.065 0.391 0.016 0.471-0.081 0.132-0.129 0.211-0.596-0.050l-4.982-3.048c-1.916-1.172-4.526-0.682-5.585 1.049l-1.855 3.032c-0.438 0.786-0.294 1.529 0.376 1.94 0.382 0.233 0.797 0.189 1.2 0.147 0.539-0.055 1.15-0.119 1.967 0.38 1.386 0.848 2.163 2.888 0.871 4.999-1.307 2.136-3.711 2.711-5.052 1.891-0.809-0.495-1.019-1.102-1.205-1.638-0.139-0.402-0.282-0.818-0.672-1.056-0.67-0.41-1.398-0.2-1.908 0.564l-2.039 3.332c-1.11 1.816-0.407 4.519 1.476 5.67l5.008 3.064c0.777 0.433 1.538 0.288 1.941-0.371 0.242-0.396 0.171-0.788 0.108-1.135-0.085-0.464-0.171-0.942 0.318-1.742 0.878-1.435 2.755-1.56 4.782-0.32s2.771 2.969 1.893 4.404c-0.489 0.799-0.955 0.939-1.406 1.076-0.337 0.102-0.72 0.217-0.962 0.613-0.409 0.668-0.196 1.394 0.571 1.907l3.219 1.971c1.758 1.076 3.821 0.465 5.014-1.485l2.311-3.778c0.082-0.086 0.565-0.311 0.949-0.076 0.078 0.048 0.119 0.161 0.2 0.425 0.153 0.503 0.384 1.264 1.497 1.945 1.785 1.091 4.424 0.837 6.016-1.765 1.717-2.806 0.844-5.066-0.783-6.061-1.098-0.672-2.037-0.561-2.659-0.488-0.276 0.032-0.535 0.063-0.635 0.002-0.385-0.235-0.404-0.77-0.372-0.865l0.010-0.020 1.781-2.911c1.207-1.973 0.827-4.174-0.904-5.233l-3.204-1.96-0.031-0.022c-0.422-0.28-0.373-0.359-0.293-0.491 0.049-0.080 0.161-0.119 0.427-0.2 0.503-0.151 1.264-0.381 1.942-1.489zM26.584 7.476c-0.337 0.102-0.721 0.218-0.963 0.614-0.273 0.447-0.397 1.11 0.567 1.773l0.055 0.038 3.225 1.973c1.425 0.872 1.373 2.633 0.585 3.922l-1.805 2.951c-0.018 0.029-0.041 0.054-0.052 0.085-0.229 0.542-0.027 1.59 0.757 2.070 0.384 0.235 0.803 0.185 1.249 0.133 0.576-0.068 1.23-0.145 2.044 0.353 1.489 0.911 1.671 2.775 0.463 4.749-1.324 2.164-3.365 2.269-4.701 1.451-0.8-0.489-0.942-0.955-1.080-1.405-0.103-0.338-0.22-0.721-0.617-0.964-0.784-0.48-1.81-0.182-2.188 0.269-0.023 0.024-0.034 0.056-0.052 0.085l-2.333 3.813c-0.761 1.244-2.202 2.088-3.701 1.171l-3.204-1.96c-0.453-0.303-0.322-0.516-0.267-0.606 0.048-0.079 0.161-0.119 0.427-0.2 0.503-0.152 1.264-0.381 1.942-1.489 0.967-1.58 0.658-3.96-2.213-5.716-2.485-1.52-4.935-1.266-6.096 0.632-0.678 1.108-0.536 1.889-0.442 2.407 0.049 0.272 0.065 0.391 0.016 0.471-0.056 0.091-0.186 0.304-0.645 0.048l-4.991-3.054c-1.403-0.858-1.975-3.017-1.155-4.358l2.029-3.316c0.302-0.453 0.513-0.323 0.604-0.268 0.095 0.058 0.177 0.297 0.266 0.551 0.202 0.584 0.508 1.469 1.611 2.144 1.762 1.078 4.741 0.45 6.365-2.204 1.614-2.639 0.591-5.221-1.191-6.311-1.095-0.67-1.981-0.578-2.568-0.516-0.266 0.028-0.496 0.051-0.599-0.012-0.090-0.055-0.301-0.184-0.046-0.644l1.845-3.016c0.879-1.436 2.957-1.54 4.271-0.736l5.035 3.078c1.032 0.58 1.579 0.16 1.857-0.293 0.242-0.396 0.171-0.788 0.108-1.135-0.085-0.464-0.171-0.942 0.318-1.742 0.864-1.413 2.8-1.532 4.818-0.298 2.006 1.227 2.735 2.947 1.858 4.382-0.489 0.799-0.956 0.94-1.406 1.077z"></path>
</symbol>

<!-- TODO -->
<symbol id="icon-triangle" viewBox="0 0 32 32">
<path fill="#fa6900" stroke="#fbdcc5" stroke-linejoin="miter" stroke-linecap="butt" stroke-miterlimit="4" stroke-width="5.7143" d="M29.143 16c0 7.259-5.884 13.143-13.143 13.143s-13.143-5.884-13.143-13.143c0-7.259 5.884-13.143 13.143-13.143s13.143 5.884 13.143 13.143z"></path>
<path fill="#e9ecf3" d="M9.7 20h12.6c0.128-0 0.253-0.034 0.362-0.097s0.198-0.154 0.257-0.261c0.059-0.108 0.087-0.229 0.079-0.351s-0.050-0.239-0.122-0.339l-6.3-8.682c-0.261-0.36-0.89-0.36-1.152 0l-6.3 8.682c-0.073 0.1-0.116 0.218-0.124 0.339s0.019 0.243 0.079 0.351c0.059 0.108 0.149 0.198 0.258 0.262s0.235 0.096 0.363 0.096zM16.001 11.823l4.965 6.841h-9.929l4.964-6.841z"></path>
</symbol>

<symbol id="icon-close" viewBox="0 0 32 32">
<path d="M8.801 6.743l16.456 16.456c0.568 0.568 0.568 1.489 0 2.057s-1.489 0.568-2.057 0l-16.456-16.456c-0.568-0.568-0.568-1.489 0-2.057s1.489-0.568 2.057 0z"></path>
<path d="M6.119 23.303l16.456-16.456c0.568-0.568 1.489-0.568 2.057 0s0.568 1.489 0 2.057l-16.456 16.456c-0.568 0.568-1.489 0.568-2.057 0s-0.568-1.489 0-2.057z"></path>
</symbol>

<symbol id="icon-menu" viewBox="0 0 32 32">
<path d="M2.668 8c0-0.354 0.14-0.693 0.391-0.943s0.589-0.391 0.943-0.391h24c0.354 0 0.693 0.14 0.943 0.391s0.39 0.589 0.39 0.943c0 0.354-0.14 0.693-0.39 0.943s-0.589 0.391-0.943 0.391h-24c-0.354 0-0.693-0.14-0.943-0.391s-0.391-0.589-0.391-0.943zM2.668 16.043c0-0.354 0.14-0.693 0.391-0.943s0.589-0.39 0.943-0.39h24c0.354 0 0.693 0.14 0.943 0.39s0.39 0.589 0.39 0.943-0.14 0.693-0.39 0.943c-0.25 0.25-0.589 0.391-0.943 0.391h-24c-0.354 0-0.693-0.14-0.943-0.391s-0.391-0.589-0.391-0.943zM4.001 22.753c-0.354 0-0.693 0.14-0.943 0.39s-0.391 0.589-0.391 0.943c0 0.354 0.14 0.693 0.391 0.943s0.589 0.391 0.943 0.391h24c0.354 0 0.693-0.14 0.943-0.391s0.39-0.589 0.39-0.943-0.14-0.693-0.39-0.943c-0.25-0.25-0.589-0.39-0.943-0.39h-24z"></path>
</symbol>

<symbol id="icon-review-puzzle" viewBox="0 0 32 32">
<path fill="none" stroke-linejoin="miter" stroke-linecap="butt" stroke-miterlimit="4" stroke-width="1.1429" d="M16 0.571c8.521 0 15.429 6.908 15.429 15.429s-6.908 15.429-15.429 15.429c-8.521 0-15.429-6.908-15.429-15.429s6.908-15.429 15.429-15.429z"></path>
<path d="M25.428 14.705h-1.543v-3.962c0-0.525-0.217-1.029-0.602-1.401s-0.909-0.58-1.455-0.58h-4.114v-1.486c0-0.657-0.271-1.287-0.753-1.751s-1.136-0.725-1.818-0.725c-0.682 0-1.336 0.261-1.818 0.725s-0.753 1.094-0.753 1.751v1.486h-4.114c-0.546 0-1.069 0.209-1.455 0.58s-0.603 0.875-0.603 1.401v3.764h1.543c1.543 0 2.777 1.189 2.777 2.674s-1.234 2.674-2.777 2.674h-1.543v3.764c0 0.525 0.217 1.029 0.603 1.401s0.909 0.58 1.455 0.58h3.909v-1.486c0-1.486 1.234-2.674 2.777-2.674s2.777 1.189 2.777 2.674v1.486h3.909c0.546 0 1.069-0.209 1.455-0.58s0.602-0.875 0.602-1.401v-3.962h1.543c0.682 0 1.336-0.261 1.818-0.725s0.753-1.094 0.753-1.751c0-0.657-0.271-1.287-0.753-1.751s-1.136-0.725-1.818-0.725z"></path>
</symbol>

<symbol id="icon-arrow-left" viewBox="0 0 34 34">
<path d="M0 16c0-8.847 7.153-16 16-16s16 7.153 16 16c0 8.847-7.153 16-16 16s-16-7.153-16-16zM30.118 16c0-7.812-6.306-14.118-14.118-14.118s-14.118 6.306-14.118 14.118c0 7.812 6.306 14.118 14.118 14.118s14.118-6.306 14.118-14.118z"></path>
<path d="M17.681 7.079c0.395 0.388 0.395 1.025 0 1.412l-6.684 6.556c-0.533 0.523-0.533 1.381 0 1.904l6.684 6.556c0.395 0.388 0.395 1.025 0 1.412-0.385 0.377-1.001 0.377-1.385 0l-8.124-7.969c-0.533-0.523-0.533-1.381 0-1.904l8.124-7.969c0.385-0.377 1.001-0.377 1.385 0z"></path>
<path d="M10.399 16.8c-0.442 0-0.8-0.358-0.8-0.8s0.358-0.8 0.8-0.8h14.4c0.442 0 0.8 0.358 0.8 0.8s-0.358 0.8-0.8 0.8h-14.4z"></path>
</symbol>

<symbol id="icon-arrow-right" viewBox="0 0 34 34">
<path d="M32 16c0 8.847-7.153 16-16 16s-16-7.153-16-16c0-8.847 7.153-16 16-16s16 7.153 16 16zM1.882 16c0 7.812 6.306 14.118 14.118 14.118s14.118-6.306 14.118-14.118-6.306-14.118-14.118-14.118c-7.812 0-14.118 6.306-14.118 14.118z"></path>
<path d="M14.321 24.921c-0.395-0.388-0.395-1.025 0-1.412l6.199-6.081c0.799-0.784 0.799-2.072 0-2.856l-6.199-6.080c-0.395-0.388-0.395-1.025 0-1.412 0.385-0.377 1.001-0.377 1.385 0l7.639 7.493c0.799 0.784 0.799 2.072 0 2.856l-7.639 7.493c-0.385 0.377-1.001 0.377-1.385 0z"></path>
<path d="M21.598 15.2c0.442 0 0.8 0.358 0.8 0.8s-0.358 0.8-0.8 0.8h-14.4c-0.442 0-0.8-0.358-0.8-0.8s0.358-0.8 0.8-0.8h14.4z"></path>
</symbol>

<symbol id="icon-Logo" viewBox="0 0 32 32">
<path fill="#d62845" style="fill: var(--color13, #d62845)" d="M4.267 0.067h23.468c2.32 0 4.2 1.88 4.2 4.2v23.468c0 2.32-1.88 4.2-4.2 4.2h-23.468c-2.32 0-4.2-1.88-4.2-4.2v-23.468c0-2.32 1.88-4.2 4.2-4.2z"></path>
<path fill="#fecfb3" style="fill: var(--color14, #fecfb3)" d="M25.602 9.734c0 1.841-1.492 3.333-3.333 3.333s-3.333-1.492-3.333-3.333c0-1.841 1.492-3.333 3.333-3.333s3.333 1.492 3.333 3.333z"></path>
<path fill="#ccc" style="fill: var(--color15, #ccc)" d="M6.935 6.934h6.133v6.133h-6.133v-6.133z"></path>
<path fill="#fecfb3" style="fill: var(--color14, #fecfb3)" d="M21.201 19.201v-6.667h2.133v6.667h-2.133z"></path>
<path fill="#ffaa96" style="fill: var(--color16, #ffaa96)" d="M12.667 21.201h6.667v2.133h-6.667v-2.133z"></path>
<path fill="#e6887e" style="fill: var(--color17, #e6887e)" d="M13.068 22.267c0 1.841-1.492 3.333-3.333 3.333s-3.333-1.492-3.333-3.333c0-1.841 1.492-3.333 3.333-3.333s3.333 1.492 3.333 3.333z"></path>
<path fill="#ffaa96" style="fill: var(--color16, #ffaa96)" d="M25.602 22.267c0 1.841-1.492 3.333-3.333 3.333s-3.333-1.492-3.333-3.333c0-1.841 1.492-3.333 3.333-3.333s3.333 1.492 3.333 3.333z"></path>
</symbol>

<symbol id="icon-play-market" viewBox="0 0 264 62">
<path d="M85.4867 8.04047C85.524 8.8656 85.3925 9.68968 85.1004 10.463C84.8082 11.2364 84.3614 11.9431 83.7867 12.5405C83.1428 13.2004 82.3658 13.7179 81.5064 14.0591C80.6471 14.4003 79.7249 14.5575 78.8001 14.5205C77.87 14.541 76.9455 14.3719 76.0839 14.0236C75.2222 13.6753 74.4418 13.1552 73.7907 12.4955C72.47 11.1544 71.7305 9.35343 71.7305 7.47797C71.7305 5.60251 72.47 3.80154 73.7907 2.46047C74.8006 1.48101 76.0794 0.819627 77.4667 0.559419C78.854 0.299212 80.2879 0.451786 81.5881 0.997971C82.4055 1.33149 83.1345 1.84731 83.7188 2.50547L82.5174 3.69797C82.0673 3.15971 81.4969 2.73303 80.8517 2.45181C80.2064 2.1706 79.5039 2.0426 78.8001 2.07797C77.9116 2.08407 77.0382 2.3061 76.2561 2.72465C75.474 3.14321 74.8071 3.74554 74.3137 4.47901C73.8203 5.21247 73.5153 6.05475 73.4256 6.9322C73.3358 7.80966 73.4639 8.69559 73.7987 9.51255C74.1334 10.3295 74.6647 11.0526 75.3461 11.6187C76.0274 12.1848 76.838 12.5766 77.7071 12.7599C78.5762 12.9432 79.4774 12.9124 80.3317 12.6702C81.186 12.428 81.9676 11.9817 82.6081 11.3705C83.3004 10.6169 83.7019 9.64458 83.7414 8.62547H78.8001V7.00547H85.3961C85.4477 7.3483 85.478 7.69395 85.4867 8.04047Z" fill="black" stroke="black" stroke-width="0.411304" stroke-miterlimit="10" stroke-linecap="round"/>
<path d="M95.8646 2.41463H89.7446V6.68963H95.3206V8.30964H89.7446V12.5846H95.8646V14.2496H87.9766V0.749634H95.8646V2.41463Z" fill="black" stroke="black" stroke-width="0.411304" stroke-miterlimit="10" stroke-linecap="round"/>
<path d="M103.303 14.2496H101.558V2.41463H97.75V0.749634H107.202V2.41463H103.303V14.2496Z" fill="black" stroke="black" stroke-width="0.411304" stroke-miterlimit="10" stroke-linecap="round"/>
<path d="M113.863 14.2496V0.749634H115.609V14.2496H113.863Z" fill="black" stroke="black" stroke-width="0.411304" stroke-miterlimit="10" stroke-linecap="round"/>
<path d="M123.362 14.2496H121.617V2.41463H117.809V0.749634H127.147V2.41463H123.362V14.2496Z" fill="black" stroke="black" stroke-width="0.411304" stroke-miterlimit="10" stroke-linecap="round"/>
<path d="M144.851 12.4953C144.196 13.1456 143.419 13.6616 142.563 14.0136C141.708 14.3656 140.791 14.5468 139.864 14.5468C138.938 14.5468 138.021 14.3656 137.165 14.0136C136.31 13.6616 135.532 13.1456 134.878 12.4953C133.596 11.1431 132.883 9.35665 132.883 7.50026C132.883 5.64387 133.596 3.8574 134.878 2.50526C135.518 1.83656 136.293 1.30879 137.152 0.956087C138.011 0.603388 138.935 0.433619 139.864 0.457763C140.792 0.443191 141.713 0.617331 142.571 0.969459C143.429 1.32159 144.205 1.84425 144.851 2.50526C145.503 3.16336 146.015 3.94443 146.358 4.80235C146.7 5.66026 146.866 6.57763 146.846 7.50026C146.875 8.42404 146.714 9.34405 146.371 10.2033C146.027 11.0625 145.51 11.8426 144.851 12.4953ZM136.17 11.3703C136.653 11.856 137.228 12.2417 137.862 12.5049C138.496 12.7681 139.177 12.9037 139.864 12.9037C140.552 12.9037 141.232 12.7681 141.867 12.5049C142.501 12.2417 143.076 11.856 143.559 11.3703C144.537 10.3153 145.08 8.93396 145.08 7.50026C145.08 6.06656 144.537 4.68523 143.559 3.63026C143.076 3.14454 142.501 2.75886 141.867 2.49562C141.232 2.23239 140.552 2.09684 139.864 2.09684C139.177 2.09684 138.496 2.23239 137.862 2.49562C137.228 2.75886 136.653 3.14454 136.17 3.63026C135.192 4.68523 134.649 6.06656 134.649 7.50026C134.649 8.93396 135.192 10.3153 136.17 11.3703Z" fill="black" stroke="black" stroke-width="0.411304" stroke-miterlimit="10" stroke-linecap="round"/>
<path d="M149.316 14.2496V0.749634H151.424L158.043 11.2571V8.64713V0.749634H159.788V14.2496H157.975L151.062 3.24714V5.83463V14.2496H149.316Z" fill="black" stroke="black" stroke-width="0.411304" stroke-miterlimit="10" stroke-linecap="round"/>
<path d="M132.45 33.9377C130.54 33.9421 128.675 34.5087 127.089 35.5656C125.504 36.6225 124.27 38.1223 123.543 39.8754C122.816 41.6286 122.63 43.5562 123.007 45.4147C123.384 47.2731 124.307 48.9788 125.661 50.3162C127.014 51.6535 128.737 52.5624 130.611 52.9278C132.485 53.2933 134.426 53.099 136.189 52.3694C137.951 51.6398 139.456 50.4078 140.514 48.8291C141.571 47.2504 142.133 45.3959 142.129 43.5002C142.147 42.2355 141.909 40.9801 141.429 39.8087C140.948 38.6373 140.235 37.5738 139.332 36.6816C138.429 35.7893 137.354 35.0866 136.172 34.6152C134.99 34.1438 133.724 33.9134 132.45 33.9377ZM132.45 49.3052C131.279 49.3865 130.111 49.1163 129.097 48.5298C128.084 47.9433 127.271 47.0677 126.765 46.0167C126.259 44.9657 126.084 43.7879 126.261 42.6365C126.439 41.4851 126.961 40.4134 127.76 39.5605C128.559 38.7077 129.598 38.1132 130.743 37.8544C131.887 37.5956 133.083 37.6845 134.175 38.1094C135.268 38.5343 136.206 39.2756 136.869 40.237C137.531 41.1984 137.887 42.3354 137.89 43.5002C137.926 44.2382 137.814 44.976 137.558 45.6701C137.303 46.3642 136.91 47.0006 136.403 47.5416C135.896 48.0826 135.285 48.5174 134.606 48.8203C133.927 49.1232 133.194 49.2881 132.45 49.3052ZM111.325 33.9377C109.415 33.9421 107.549 34.5087 105.964 35.5656C104.378 36.6225 103.144 38.1223 102.418 39.8754C101.691 41.6286 101.504 43.5562 101.881 45.4147C102.258 47.2731 103.182 48.9788 104.535 50.3162C105.889 51.6535 107.612 52.5624 109.486 52.9278C111.36 53.2933 113.301 53.099 115.063 52.3694C116.826 51.6398 118.331 50.4078 119.388 48.8291C120.446 47.2504 121.008 45.3959 121.003 43.5002C121.022 42.2355 120.784 40.9801 120.303 39.8087C119.823 38.6373 119.11 37.5738 118.207 36.6816C117.304 35.7893 116.229 35.0866 115.047 34.6152C113.864 34.1438 112.598 33.9134 111.325 33.9377ZM111.325 49.3052C110.154 49.3865 108.986 49.1163 107.972 48.5298C106.958 47.9433 106.146 47.0677 105.64 46.0167C105.134 44.9657 104.958 43.7879 105.136 42.6365C105.313 41.4851 105.836 40.4134 106.635 39.5605C107.434 38.7077 108.473 38.1132 109.617 37.8544C110.761 37.5956 111.957 37.6845 113.05 38.1094C114.142 38.5343 115.081 39.2756 115.743 40.237C116.406 41.1984 116.762 42.3354 116.765 43.5002C116.801 44.2382 116.688 44.976 116.433 45.6701C116.178 46.3642 115.785 47.0006 115.278 47.5416C114.771 48.0826 114.16 48.5174 113.481 48.8203C112.802 49.1232 112.069 49.2881 111.325 49.3052ZM86.2099 36.8852V40.9352H96.0019C95.8483 42.8428 95.0495 44.6427 93.7352 46.0427C92.7529 47.0361 91.5715 47.8138 90.2674 48.3254C88.9633 48.837 87.5655 49.0711 86.1645 49.0127C83.279 49.0127 80.5116 47.8748 78.4712 45.8494C76.4308 43.8241 75.2845 41.077 75.2845 38.2127C75.2845 35.3484 76.4308 32.6013 78.4712 30.5759C80.5116 28.5505 83.279 27.4127 86.1645 27.4127C88.9309 27.3719 91.602 28.4147 93.5992 30.3152L96.4779 27.4577C95.1269 26.1313 93.5228 25.0859 91.7597 24.3828C89.9965 23.6796 88.1097 23.3328 86.2099 23.3627C84.1948 23.2848 82.1846 23.6116 80.2998 24.3234C78.415 25.0352 76.6943 26.1173 75.2409 27.505C73.7875 28.8926 72.6312 30.5573 71.8414 32.3991C71.0516 34.241 70.6445 36.2222 70.6445 38.2239C70.6445 40.2257 71.0516 42.2069 71.8414 44.0487C72.6312 45.8906 73.7875 47.5552 75.2409 48.9429C76.6943 50.3306 78.415 51.4127 80.2998 52.1245C82.1846 52.8363 84.1948 53.163 86.2099 53.0852C88.1488 53.1621 90.0822 52.8309 91.8831 52.1135C93.684 51.3962 95.3117 50.3087 96.6592 48.9227C99.0395 46.3271 100.308 42.9134 100.195 39.4052C100.203 38.5608 100.135 37.7174 99.9912 36.8852H86.2099ZM188.913 40.0352C188.321 38.3088 187.216 36.8015 185.743 35.7126C184.269 34.6237 182.497 34.0048 180.662 33.9377C179.422 33.9353 178.195 34.1853 177.056 34.6724C175.917 35.1594 174.892 35.8732 174.042 36.7694C173.192 37.6656 172.536 38.7254 172.116 39.8831C171.695 41.0408 171.518 42.2718 171.595 43.5002C171.576 45.5541 172.226 47.5591 173.45 49.2158C174.673 50.8724 176.403 52.0918 178.382 52.6918C180.361 53.2917 182.483 53.2401 184.43 52.5445C186.377 51.849 188.045 50.5469 189.185 48.8327L185.898 46.5827C185.408 47.3933 184.713 48.0627 183.882 48.5245C183.051 48.9863 182.113 49.2244 181.161 49.2152C180.178 49.2555 179.206 48.9998 178.373 48.4818C177.54 47.9637 176.884 47.2076 176.491 46.3127L189.389 41.0252L188.913 40.0352ZM175.766 43.2302C175.72 42.5313 175.815 41.8303 176.045 41.1683C176.276 40.5063 176.637 39.8966 177.108 39.3749C177.578 38.8531 178.149 38.4299 178.787 38.1299C179.424 37.8299 180.116 37.6591 180.821 37.6277C181.551 37.5834 182.278 37.7541 182.911 38.1183C183.544 38.4826 184.055 39.0241 184.379 39.6752L175.766 43.2302ZM165.294 52.5002H169.533V24.3752H165.294V52.5002ZM158.358 36.0752H158.199C157.566 35.3594 156.785 34.7878 155.908 34.3994C155.032 34.0111 154.081 33.8152 153.122 33.8252C150.645 33.9444 148.309 35.0051 146.598 36.7875C144.888 38.5699 143.934 40.9372 143.934 43.3989C143.934 45.8607 144.888 48.228 146.598 50.0104C148.309 51.7927 150.645 52.8535 153.122 52.9727C154.083 52.9918 155.036 52.8001 155.914 52.4111C156.792 52.0222 157.572 51.4456 158.199 50.7227H158.358V52.0952C158.358 55.7627 156.386 57.7202 153.213 57.7202C152.152 57.6971 151.123 57.3618 150.256 56.7568C149.388 56.1519 148.721 55.3047 148.339 54.3227L144.667 55.8302C145.346 57.5227 146.526 58.9709 148.052 59.9833C149.578 60.9957 151.377 61.5247 153.213 61.5002C158.177 61.5002 162.279 58.5977 162.279 51.5327V34.5002H158.358V36.0752ZM153.485 49.3052C151.999 49.2133 150.605 48.5629 149.587 47.4864C148.568 46.41 148 44.9885 148 43.5114C148 42.0344 148.568 40.6129 149.587 39.5365C150.605 38.46 151.999 37.8096 153.485 37.7177C154.21 37.7488 154.923 37.9245 155.579 38.2344C156.235 38.5443 156.821 38.982 157.303 39.5215C157.786 40.061 158.153 40.6912 158.385 41.3747C158.617 42.0583 158.708 42.7811 158.653 43.5002C158.714 44.2217 158.628 44.9483 158.399 45.6358C158.17 46.3233 157.803 46.9576 157.32 47.5002C156.837 48.0428 156.248 48.4826 155.588 48.7928C154.929 49.1031 154.214 49.2774 153.485 49.3052ZM208.769 24.3752H198.614V52.5002H202.853V41.8352H208.769C209.977 41.9213 211.19 41.7595 212.332 41.3598C213.474 40.9601 214.521 40.3311 215.408 39.5121C216.294 38.693 217.001 37.7014 217.485 36.5991C217.968 35.4968 218.218 34.3074 218.218 33.1052C218.218 31.903 217.968 30.7136 217.485 29.6113C217.001 28.509 216.294 27.5174 215.408 26.6983C214.521 25.8792 213.474 25.2503 212.332 24.8506C211.19 24.4509 209.977 24.289 208.769 24.3752ZM208.769 37.8752H202.853V28.2902H208.859C209.496 28.2902 210.127 28.4147 210.715 28.6567C211.304 28.8987 211.839 29.2534 212.289 29.7005C212.74 30.1476 213.097 30.6784 213.341 31.2626C213.584 31.8468 213.71 32.4729 213.71 33.1052C213.71 33.7375 213.584 34.3636 213.341 34.9478C213.097 35.532 212.74 36.0628 212.289 36.5099C211.839 36.957 211.304 37.3117 210.715 37.5537C210.127 37.7956 209.496 37.9202 208.859 37.9202L208.769 37.8752ZM234.926 33.8477C233.382 33.7532 231.845 34.1099 230.503 34.8737C229.162 35.6375 228.075 36.7749 227.378 38.1452L231.118 39.6977C231.496 39.0213 232.063 38.4681 232.751 38.1048C233.439 37.7414 234.218 37.5835 234.994 37.6502C235.532 37.5878 236.077 37.6324 236.598 37.7814C237.118 37.9304 237.604 38.1808 238.026 38.518C238.448 38.8552 238.798 39.2725 239.056 39.7454C239.313 40.2184 239.474 40.7376 239.527 41.2727V41.5427C238.164 40.8315 236.647 40.4608 235.107 40.4627C231.073 40.4627 226.947 42.7127 226.947 46.8077C226.987 47.6781 227.203 48.5316 227.582 49.3177C227.96 50.1037 228.494 50.8062 229.152 51.3833C229.809 51.9605 230.577 52.4006 231.409 52.6775C232.242 52.9544 233.121 53.0624 233.997 52.9952C235.06 53.0536 236.12 52.8302 237.068 52.3478C238.016 51.8654 238.818 51.1415 239.391 50.2502H239.527V52.5002H243.607V41.6777C243.607 36.7502 239.845 33.8927 235.017 33.8927L234.926 33.8477ZM234.405 49.2602C233.022 49.2602 231.095 48.5627 231.095 46.8752C231.095 44.6252 233.498 43.8602 235.629 43.8602C236.975 43.8272 238.306 44.1536 239.482 44.8052C239.34 46.0271 238.756 47.1564 237.839 47.9838C236.922 48.8112 235.734 49.2807 234.495 49.3052L234.405 49.2602ZM258.477 34.5002L253.626 46.6952H253.49L248.458 34.5002H243.925L251.473 51.5552L247.166 61.0277H251.586L263.191 34.5002H258.477ZM220.397 52.5002H224.613V24.3752H220.397V52.5002Z" fill="black"/>
<path d="M1.66493 1.96518C0.917992 2.84183 0.536871 3.96872 0.599592 5.11518V54.8852C0.522466 56.0335 0.905353 57.1656 1.66493 58.0352L1.82359 58.2152L29.9076 30.3377V29.6627L1.82359 1.80768L1.66493 1.96518Z" fill="url(#paint0_linear_0_1)"/>
<path d="M39.1996 39.6297L29.9062 30.3372V29.6622L39.1996 20.3697L39.4036 20.5047L50.5329 26.7597C53.7062 28.5372 53.7062 31.4622 50.5329 33.2622L39.4489 39.5172L39.1996 39.6297Z" fill="url(#paint1_linear_0_1)"/>
<path d="M39.4721 39.4949L29.9067 29.9999L1.66406 58.0349C2.30456 58.6008 3.1244 58.9264 3.98139 58.9552C4.83839 58.9839 5.67851 58.7141 6.35606 58.1924L39.4721 39.4949Z" fill="url(#paint2_linear_0_1)"/>
<path d="M39.4721 20.5051L6.35606 1.83011C5.68292 1.30117 4.84346 1.02474 3.98529 1.04943C3.12713 1.07413 2.30521 1.39836 1.66406 1.96511L29.9067 30.0001L39.4721 20.5051Z" fill="url(#paint3_linear_0_1)"/>
<path opacity="0.2" d="M39.2001 39.2924L6.35606 57.8549C5.70314 58.344 4.90741 58.6086 4.0894 58.6086C3.27138 58.6086 2.47565 58.344 1.82273 57.8549L1.66406 58.0124L1.82273 58.1924C2.47565 58.6815 3.27138 58.9461 4.0894 58.9461C4.90741 58.9461 5.70314 58.6815 6.35606 58.1924L39.4721 39.4949L39.2001 39.2924Z" fill="black"/>
<path opacity="0.12" d="M1.66268 57.7198C0.934615 56.8274 0.577813 55.6924 0.665348 54.5473V54.8848C0.588222 56.0332 0.971105 57.1653 1.73068 58.0348L1.88935 57.8773L1.66268 57.7198Z" fill="black"/>
<defs>
<linearGradient id="paint0_linear_0_1" x1="27.4143" y1="4.59768" x2="-10.3397" y2="42.6313" gradientUnits="userSpaceOnUse">
<stop stop-color="#00A0FF"/>
<stop offset="0.01" stop-color="#00A1FF"/>
<stop offset="0.26" stop-color="#00BEFF"/>
<stop offset="0.51" stop-color="#00D2FF"/>
<stop offset="0.76" stop-color="#00DFFF"/>
<stop offset="1" stop-color="#00E3FF"/>
</linearGradient>
<linearGradient id="paint1_linear_0_1" x1="54.6809" y1="29.9997" x2="-0.149744" y2="29.9997" gradientUnits="userSpaceOnUse">
<stop stop-color="#FFE000"/>
<stop offset="0.41" stop-color="#FFBD00"/>
<stop offset="0.78" stop-color="#FFA500"/>
<stop offset="1" stop-color="#FF9C00"/>
</linearGradient>
<linearGradient id="paint2_linear_0_1" x1="34.2814" y1="35.1749" x2="-16.9274" y2="86.7403" gradientUnits="userSpaceOnUse">
<stop stop-color="#FF3A44"/>
<stop offset="1" stop-color="#C31162"/>
</linearGradient>
<linearGradient id="paint3_linear_0_1" x1="-5.45327" y1="-14.5949" x2="17.4061" y2="8.43382" gradientUnits="userSpaceOnUse">
<stop stop-color="#32A071"/>
<stop offset="0.07" stop-color="#2DA771"/>
<stop offset="0.48" stop-color="#15CF74"/>
<stop offset="0.8" stop-color="#06E775"/>
<stop offset="1" stop-color="#00F076"/>
</linearGradient>
</defs>
</symbol>

<symbol id="icon-puzzle" viewBox="0 0 35 32">
<path d="M20.027 3.907c0-1.945-1.558-3.907-5.038-3.907-3.065 0-5.125 1.57-5.125 3.907 0 1.364 0.552 1.986 0.916 2.398 0.193 0.217 0.271 0.315 0.271 0.413 0 0.162 0 0.26-0.558 0.282l-6.093-0c-2.343 0-4.399 1.869-4.399 4v3.732c0.038 0.944 0.571 1.531 1.391 1.531 0.467 0 0.812-0.267 1.148-0.526 0.45-0.345 0.958-0.737 1.957-0.737 1.695 0 3.497 1.402 3.497 4 0 2.629-1.827 4.462-3.466 4.462-0.989 0-1.507-0.429-1.964-0.807-0.343-0.284-0.696-0.578-1.173-0.578-0.819 0-1.353 0.587-1.391 1.551v4.102c0.001 2.235 2.098 4.27 4.4 4.27h6.124c0.927-0.038 1.526-0.585 1.526-1.396 0-0.487-0.277-0.8-0.522-1.076-0.328-0.369-0.665-0.75-0.665-1.734 0-1.766 1.603-2.907 4.082-2.907 2.48 0 4.083 1.141 4.083 2.907 0 0.984-0.339 1.365-0.666 1.734-0.245 0.276-0.523 0.589-0.523 1.076 0 0.822 0.585 1.356 1.547 1.395l3.938 0.001c2.15 0 3.653-1.677 3.653-4.078v-4.65c0.026-0.122 0.334-0.588 0.803-0.588 0.096 0 0.193 0.079 0.409 0.271 0.41 0.367 1.030 0.922 2.391 0.922 2.182-0.001 4.392-1.675 4.392-4.877 0-3.454-2.007-5-3.997-5-1.343 0-2.118 0.614-2.632 1.020-0.228 0.18-0.442 0.35-0.564 0.35-0.471 0-0.779-0.468-0.801-0.571l-0.002-0.024v-3.583c0-2.429-1.537-4.192-3.653-4.192l-3.958-0.003c-0.528-0.020-0.528-0.117-0.528-0.279 0-0.098 0.078-0.195 0.271-0.413 0.365-0.411 0.917-1.034 0.917-2.398zM18.362 5.642c-0.245 0.276-0.523 0.59-0.523 1.077 0 0.55 0.251 1.212 1.47 1.277l0.070 0.004h3.945c1.742 0 2.656 1.606 2.656 3.192v3.633c0 0.036-0.007 0.071 0 0.105 0.092 0.611 0.841 1.439 1.801 1.439 0.47 0 0.815-0.274 1.184-0.565 0.476-0.377 1.016-0.804 2.011-0.804 1.821 0 2.998 1.57 2.998 4 0 2.664-1.76 3.876-3.393 3.876-0.978 0-1.358-0.339-1.726-0.667-0.276-0.246-0.588-0.525-1.074-0.525-0.959 0-1.71 0.829-1.801 1.44-0.007 0.034 0 0.069 0 0.105v4.694c0 1.531-0.822 3.077-2.656 3.077h-3.918c-0.568-0.023-0.568-0.285-0.568-0.396 0-0.097 0.078-0.195 0.271-0.413 0.365-0.412 0.917-1.034 0.917-2.398 0-1.945-1.571-3.907-5.082-3.907-3.039 0-5.081 1.57-5.081 3.907 0 1.364 0.552 1.986 0.917 2.398 0.192 0.217 0.271 0.315 0.271 0.413 0 0.112 0 0.374-0.548 0.396h-6.104c-1.716 0-3.4-1.62-3.4-3.27v-4.082c0.022-0.571 0.281-0.571 0.392-0.571 0.116 0 0.32 0.169 0.537 0.348 0.498 0.413 1.252 1.037 2.601 1.037 2.155 0 4.464-2.195 4.464-5.462 0-3.248-2.316-5-4.496-5-1.339 0-2.077 0.568-2.566 0.945-0.222 0.171-0.414 0.318-0.54 0.318-0.11 0-0.369 0-0.392-0.551v-3.712c0-1.768 1.793-3 3.4-3l6.157-0.002c1.234-0.046 1.493-0.722 1.493-1.28 0-0.487-0.277-0.8-0.522-1.076-0.328-0.369-0.665-0.75-0.665-1.735 0-1.739 1.658-2.907 4.126-2.907 2.453 0 4.039 1.141 4.039 2.907 0 0.984-0.339 1.366-0.666 1.735z"></path>

</symbol>
</defs>
</svg>
