<svg aria-hidden="true" style="position: absolute; width: 0; height: 0; overflow: hidden;" version="1.1" xmlns="http://www.w3.org/2000/svg" xmlns:xlink="http://www.w3.org/1999/xlink">
<defs>
<symbol id="icon-puzGreen" viewBox="0 0 32 32">
<path fill="none" stroke="#1bc088" style="stroke: var(--color1, #1bc088)" stroke-linejoin="miter" stroke-linecap="butt" stroke-miterlimit="4" stroke-width="1.1429" d="M16 0.571c8.521 0 15.429 6.908 15.429 15.429s-6.908 15.429-15.429 15.429c-8.521 0-15.429-6.908-15.429-15.429s6.908-15.429 15.429-15.429z"></path>
<path fill="#1bc088" style="fill: var(--color1, #1bc088)" d="M25.428 14.705h-1.543v-3.962c0-0.525-0.217-1.029-0.602-1.401s-0.909-0.58-1.455-0.58h-4.114v-1.486c0-0.657-0.271-1.287-0.753-1.751s-1.136-0.725-1.818-0.725c-0.682 0-1.336 0.261-1.818 0.725s-0.753 1.094-0.753 1.751v1.486h-4.114c-0.546 0-1.069 0.209-1.455 0.58s-0.603 0.875-0.603 1.401v3.764h1.543c1.543 0 2.777 1.189 2.777 2.674s-1.234 2.674-2.777 2.674h-1.543v3.764c0 0.525 0.217 1.029 0.603 1.401s0.909 0.58 1.455 0.58h3.909v-1.486c0-1.486 1.234-2.674 2.777-2.674s2.777 1.189 2.777 2.674v1.486h3.909c0.546 0 1.069-0.209 1.455-0.58s0.602-0.875 0.602-1.401v-3.962h1.543c0.682 0 1.336-0.261 1.818-0.725s0.753-1.094 0.753-1.751c0-0.657-0.271-1.287-0.753-1.751s-1.136-0.725-1.818-0.725z"></path>
</symbol>
<symbol id="icon-puzYel" viewBox="0 0 32 32">
<path fill="none" stroke="#feac00" style="stroke: var(--color2, #feac00)" stroke-linejoin="miter" stroke-linecap="butt" stroke-miterlimit="4" stroke-width="1.1429" d="M16 0.571c8.521 0 15.429 6.908 15.429 15.429s-6.908 15.429-15.429 15.429c-8.521 0-15.429-6.908-15.429-15.429s6.908-15.429 15.429-15.429z"></path>
<path fill="#feac00" style="fill: var(--color2, #feac00)" d="M25.428 14.705h-1.543v-3.962c0-0.525-0.217-1.029-0.602-1.401s-0.909-0.58-1.455-0.58h-4.114v-1.486c0-0.657-0.271-1.287-0.753-1.751s-1.136-0.725-1.818-0.725c-0.682 0-1.336 0.261-1.818 0.725s-0.753 1.094-0.753 1.751v1.486h-4.114c-0.546 0-1.069 0.209-1.455 0.58s-0.603 0.875-0.603 1.401v3.764h1.543c1.543 0 2.777 1.189 2.777 2.674s-1.234 2.674-2.777 2.674h-1.543v3.764c0 0.525 0.217 1.029 0.603 1.401s0.909 0.58 1.455 0.58h3.909v-1.486c0-1.486 1.234-2.674 2.777-2.674s2.777 1.189 2.777 2.674v1.486h3.909c0.546 0 1.069-0.209 1.455-0.58s0.602-0.875 0.602-1.401v-3.962h1.543c0.682 0 1.336-0.261 1.818-0.725s0.753-1.094 0.753-1.751c0-0.657-0.271-1.287-0.753-1.751s-1.136-0.725-1.818-0.725z"></path>
</symbol>
<symbol id="icon-puzBlue" viewBox="0 0 32 32">
<path fill="none" stroke="#28abe3" style="stroke: var(--color3, #28abe3)" stroke-linejoin="miter" stroke-linecap="butt" stroke-miterlimit="4" stroke-width="1.1429" d="M16 0.571c8.521 0 15.429 6.908 15.429 15.429s-6.908 15.429-15.429 15.429c-8.521 0-15.429-6.908-15.429-15.429s6.908-15.429 15.429-15.429z"></path>
<path fill="#28abe3" style="fill: var(--color3, #28abe3)" d="M25.428 14.705h-1.543v-3.962c0-0.525-0.217-1.029-0.602-1.401s-0.909-0.58-1.455-0.58h-4.114v-1.486c0-0.657-0.271-1.287-0.753-1.751s-1.136-0.725-1.818-0.725c-0.682 0-1.336 0.261-1.818 0.725s-0.753 1.094-0.753 1.751v1.486h-4.114c-0.546 0-1.069 0.209-1.455 0.58s-0.603 0.875-0.603 1.401v3.764h1.543c1.543 0 2.777 1.189 2.777 2.674s-1.234 2.674-2.777 2.674h-1.543v3.764c0 0.525 0.217 1.029 0.603 1.401s0.909 0.58 1.455 0.58h3.909v-1.486c0-1.486 1.234-2.674 2.777-2.674s2.777 1.189 2.777 2.674v1.486h3.909c0.546 0 1.069-0.209 1.455-0.58s0.602-0.875 0.602-1.401v-3.962h1.543c0.682 0 1.336-0.261 1.818-0.725s0.753-1.094 0.753-1.751c0-0.657-0.271-1.287-0.753-1.751s-1.136-0.725-1.818-0.725z"></path>
</symbol>
<symbol id="icon-puzOran" viewBox="0 0 32 32">
<path fill="none" stroke="#fa6900" style="stroke: var(--color4, #fa6900)" stroke-linejoin="miter" stroke-linecap="butt" stroke-miterlimit="4" stroke-width="1.1429" d="M16 0.571c8.521 0 15.429 6.908 15.429 15.429s-6.908 15.429-15.429 15.429c-8.521 0-15.429-6.908-15.429-15.429s6.908-15.429 15.429-15.429z"></path>
<path fill="#fa6900" style="fill: var(--color4, #fa6900)" d="M25.428 14.705h-1.543v-3.962c0-0.525-0.217-1.029-0.602-1.401s-0.909-0.58-1.455-0.58h-4.114v-1.486c0-0.657-0.271-1.287-0.753-1.751s-1.136-0.725-1.818-0.725c-0.682 0-1.336 0.261-1.818 0.725s-0.753 1.094-0.753 1.751v1.486h-4.114c-0.546 0-1.069 0.209-1.455 0.58s-0.603 0.875-0.603 1.401v3.764h1.543c1.543 0 2.777 1.189 2.777 2.674s-1.234 2.674-2.777 2.674h-1.543v3.764c0 0.525 0.217 1.029 0.603 1.401s0.909 0.58 1.455 0.58h3.909v-1.486c0-1.486 1.234-2.674 2.777-2.674s2.777 1.189 2.777 2.674v1.486h3.909c0.546 0 1.069-0.209 1.455-0.58s0.602-0.875 0.602-1.401v-3.962h1.543c0.682 0 1.336-0.261 1.818-0.725s0.753-1.094 0.753-1.751c0-0.657-0.271-1.287-0.753-1.751s-1.136-0.725-1.818-0.725z"></path>
</symbol>
<symbol id="icon-puzP" viewBox="0 0 32 32">
<path fill="none" stroke="#eb65a0" style="stroke: var(--color5, #eb65a0)" stroke-linejoin="miter" stroke-linecap="butt" stroke-miterlimit="4" stroke-width="1.1429" d="M16 0.571c8.521 0 15.429 6.908 15.429 15.429s-6.908 15.429-15.429 15.429c-8.521 0-15.429-6.908-15.429-15.429s6.908-15.429 15.429-15.429z"></path>
<path fill="#eb65a0" style="fill: var(--color5, #eb65a0)" d="M25.428 14.705h-1.543v-3.962c0-0.525-0.217-1.029-0.602-1.401s-0.909-0.58-1.455-0.58h-4.114v-1.486c0-0.657-0.271-1.287-0.753-1.751s-1.136-0.725-1.818-0.725c-0.682 0-1.336 0.261-1.818 0.725s-0.753 1.094-0.753 1.751v1.486h-4.114c-0.546 0-1.069 0.209-1.455 0.58s-0.603 0.875-0.603 1.401v3.764h1.543c1.543 0 2.777 1.189 2.777 2.674s-1.234 2.674-2.777 2.674h-1.543v3.764c0 0.525 0.217 1.029 0.603 1.401s0.909 0.58 1.455 0.58h3.909v-1.486c0-1.486 1.234-2.674 2.777-2.674s2.777 1.189 2.777 2.674v1.486h3.909c0.546 0 1.069-0.209 1.455-0.58s0.602-0.875 0.602-1.401v-3.962h1.543c0.682 0 1.336-0.261 1.818-0.725s0.753-1.094 0.753-1.751c0-0.657-0.271-1.287-0.753-1.751s-1.136-0.725-1.818-0.725z"></path>
</symbol>
<symbol id="icon-puzG" viewBox="0 0 32 32">
<path fill="none" stroke="#5bb02f" style="stroke: var(--color6, #5bb02f)" stroke-linejoin="miter" stroke-linecap="butt" stroke-miterlimit="4" stroke-width="1.1429" d="M16 0.571c8.521 0 15.429 6.908 15.429 15.429s-6.908 15.429-15.429 15.429c-8.521 0-15.429-6.908-15.429-15.429s6.908-15.429 15.429-15.429z"></path>
<path fill="#5bb02f" style="fill: var(--color6, #5bb02f)" d="M25.428 14.705h-1.543v-3.962c0-0.525-0.217-1.029-0.602-1.401s-0.909-0.58-1.455-0.58h-4.114v-1.486c0-0.657-0.271-1.287-0.753-1.751s-1.136-0.725-1.818-0.725c-0.682 0-1.336 0.261-1.818 0.725s-0.753 1.094-0.753 1.751v1.486h-4.114c-0.546 0-1.069 0.209-1.455 0.58s-0.603 0.875-0.603 1.401v3.764h1.543c1.543 0 2.777 1.189 2.777 2.674s-1.234 2.674-2.777 2.674h-1.543v3.764c0 0.525 0.217 1.029 0.603 1.401s0.909 0.58 1.455 0.58h3.909v-1.486c0-1.486 1.234-2.674 2.777-2.674s2.777 1.189 2.777 2.674v1.486h3.909c0.546 0 1.069-0.209 1.455-0.58s0.602-0.875 0.602-1.401v-3.962h1.543c0.682 0 1.336-0.261 1.818-0.725s0.753-1.094 0.753-1.751c0-0.657-0.271-1.287-0.753-1.751s-1.136-0.725-1.818-0.725z"></path>
</symbol>
<symbol id="icon-puzR" viewBox="0 0 32 32">
<path fill="none" stroke="#db403b" style="stroke: var(--color7, #db403b)" stroke-linejoin="miter" stroke-linecap="butt" stroke-miterlimit="4" stroke-width="1.1429" d="M16 0.571c8.521 0 15.429 6.908 15.429 15.429s-6.908 15.429-15.429 15.429c-8.521 0-15.429-6.908-15.429-15.429s6.908-15.429 15.429-15.429z"></path>
<path fill="#db403b" style="fill: var(--color7, #db403b)" d="M25.428 14.705h-1.543v-3.962c0-0.525-0.217-1.029-0.602-1.401s-0.909-0.58-1.455-0.58h-4.114v-1.486c0-0.657-0.271-1.287-0.753-1.751s-1.136-0.725-1.818-0.725c-0.682 0-1.336 0.261-1.818 0.725s-0.753 1.094-0.753 1.751v1.486h-4.114c-0.546 0-1.069 0.209-1.455 0.58s-0.603 0.875-0.603 1.401v3.764h1.543c1.543 0 2.777 1.189 2.777 2.674s-1.234 2.674-2.777 2.674h-1.543v3.764c0 0.525 0.217 1.029 0.603 1.401s0.909 0.58 1.455 0.58h3.909v-1.486c0-1.486 1.234-2.674 2.777-2.674s2.777 1.189 2.777 2.674v1.486h3.909c0.546 0 1.069-0.209 1.455-0.58s0.602-0.875 0.602-1.401v-3.962h1.543c0.682 0 1.336-0.261 1.818-0.725s0.753-1.094 0.753-1.751c0-0.657-0.271-1.287-0.753-1.751s-1.136-0.725-1.818-0.725z"></path>
</symbol>
<symbol id="icon-Star" viewBox="0 0 34 32">
<path fill="#fbb52d" style="fill: var(--color8, #fbb52d)" d="M15.256 1.441c0.503-1.548 2.692-1.548 3.195 0l2.739 8.431c0.225 0.692 0.87 1.161 1.598 1.161h8.865c1.627 0 2.304 2.082 0.987 3.039l-7.172 5.211c-0.589 0.428-0.835 1.186-0.61 1.878l2.739 8.431c0.503 1.548-1.268 2.834-2.585 1.878l-7.172-5.211c-0.589-0.428-1.386-0.428-1.975 0l-7.172 5.211c-1.316 0.956-3.088-0.33-2.585-1.878l2.739-8.431c0.225-0.692-0.021-1.45-0.61-1.878l-7.172-5.211c-1.316-0.957-0.64-3.039 0.987-3.039h8.865c0.728 0 1.373-0.469 1.598-1.161l2.739-8.431z"></path>
</symbol>
<symbol id="icon-Arrow_up" viewBox="0 0 32 32">
<path fill="#fa6900" style="fill: var(--color4, #fa6900); stroke: var(--color9, #fbdcc5)" stroke="#fbdcc5" stroke-linejoin="miter" stroke-linecap="butt" stroke-miterlimit="4" stroke-width="5.7143" d="M29.143 16c0 7.259-5.884 13.143-13.143 13.143s-13.143-5.884-13.143-13.143c0-7.259 5.884-13.143 13.143-13.143s13.143 5.884 13.143 13.143z"></path>
<path fill="#e9ecf3" style="fill: var(--color10, #e9ecf3)" d="M9.7 20h12.6c0.128-0 0.253-0.034 0.362-0.097s0.198-0.154 0.257-0.261c0.059-0.108 0.087-0.229 0.079-0.351s-0.050-0.239-0.122-0.339l-6.3-8.682c-0.261-0.36-0.89-0.36-1.152 0l-6.3 8.682c-0.073 0.1-0.116 0.218-0.124 0.339s0.019 0.243 0.079 0.351c0.059 0.108 0.149 0.198 0.258 0.262s0.235 0.096 0.363 0.096zM16.001 11.823l4.965 6.841h-9.929l4.964-6.841z"></path>
</symbol>
<symbol id="icon-Vector" viewBox="0 0 45 32">
<path fill="#e9ecf3" style="fill: var(--color10, #e9ecf3)" d="M2.241 32h40.321c0.408-0.001 0.808-0.109 1.157-0.311s0.634-0.491 0.823-0.836c0.19-0.345 0.277-0.733 0.253-1.121s-0.159-0.764-0.39-1.085l-20.161-27.783c-0.836-1.152-2.847-1.152-3.685 0l-20.161 27.783c-0.233 0.32-0.37 0.696-0.396 1.085s0.061 0.778 0.251 1.124c0.19 0.346 0.475 0.635 0.825 0.837s0.751 0.308 1.16 0.307zM22.402 5.835l15.886 21.891h-31.773l15.887-21.891z"></path>
</symbol>
<symbol id="icon-arrow_right" viewBox="0 0 32 32">
<path fill="#ec639f" style="fill: var(--color11, #ec639f)" d="M32 16c0 8.847-7.153 16-16 16s-16-7.153-16-16c0-8.847 7.153-16 16-16s16 7.153 16 16zM1.882 16c0 7.812 6.306 14.118 14.118 14.118s14.118-6.306 14.118-14.118-6.306-14.118-14.118-14.118c-7.812 0-14.118 6.306-14.118 14.118z"></path>
<path fill="#ec639f" style="fill: var(--color11, #ec639f)" d="M14.321 24.921c-0.395-0.388-0.395-1.025 0-1.412l6.199-6.081c0.799-0.784 0.799-2.072 0-2.856l-6.199-6.080c-0.395-0.388-0.395-1.025 0-1.412 0.385-0.377 1.001-0.377 1.385 0l7.639 7.493c0.799 0.784 0.799 2.072 0 2.856l-7.639 7.493c-0.385 0.377-1.001 0.377-1.385 0z"></path>
<path fill="#ec639f" style="fill: var(--color11, #ec639f)" d="M21.598 15.2c0.442 0 0.8 0.358 0.8 0.8s-0.358 0.8-0.8 0.8h-14.4c-0.442 0-0.8-0.358-0.8-0.8s0.358-0.8 0.8-0.8h14.4z"></path>
</symbol>
<symbol id="icon-arrow_left" viewBox="0 0 32 32">
<path fill="#f1b0cc" style="fill: var(--color12, #f1b0cc)" d="M0 16c0-8.847 7.153-16 16-16s16 7.153 16 16c0 8.847-7.153 16-16 16s-16-7.153-16-16zM30.118 16c0-7.812-6.306-14.118-14.118-14.118s-14.118 6.306-14.118 14.118c0 7.812 6.306 14.118 14.118 14.118s14.118-6.306 14.118-14.118z"></path>
<path fill="#f1b0cc" style="fill: var(--color12, #f1b0cc)" d="M17.679 7.080c0.395 0.388 0.395 1.025 0 1.412l-6.199 6.080c-0.799 0.784-0.799 2.072 0 2.856l6.199 6.081c0.395 0.388 0.395 1.024 0 1.412-0.385 0.377-1.001 0.377-1.385 0l-7.639-7.493c-0.799-0.784-0.799-2.072 0-2.856l7.639-7.493c0.385-0.377 1.001-0.377 1.385 0z"></path>
<path fill="#f1b0cc" style="fill: var(--color12, #f1b0cc)" d="M10.402 16.8c-0.442 0-0.8-0.358-0.8-0.8s0.358-0.8 0.8-0.8h14.4c0.442 0 0.8 0.358 0.8 0.8s-0.358 0.8-0.8 0.8h-14.4z"></path>
</symbol>
<symbol id="icon-Logo" viewBox="0 0 32 32">
<path fill="#d62845" style="fill: var(--color13, #d62845)" d="M4.267 0.067h23.468c2.32 0 4.2 1.88 4.2 4.2v23.468c0 2.32-1.88 4.2-4.2 4.2h-23.468c-2.32 0-4.2-1.88-4.2-4.2v-23.468c0-2.32 1.88-4.2 4.2-4.2z"></path>
<path fill="#fecfb3" style="fill: var(--color14, #fecfb3)" d="M25.602 9.734c0 1.841-1.492 3.333-3.333 3.333s-3.333-1.492-3.333-3.333c0-1.841 1.492-3.333 3.333-3.333s3.333 1.492 3.333 3.333z"></path>
<path fill="#ccc" style="fill: var(--color15, #ccc)" d="M6.935 6.934h6.133v6.133h-6.133v-6.133z"></path>
<path fill="#fecfb3" style="fill: var(--color14, #fecfb3)" d="M21.201 19.201v-6.667h2.133v6.667h-2.133z"></path>
<path fill="#ffaa96" style="fill: var(--color16, #ffaa96)" d="M12.667 21.201h6.667v2.133h-6.667v-2.133z"></path>
<path fill="#e6887e" style="fill: var(--color17, #e6887e)" d="M13.068 22.267c0 1.841-1.492 3.333-3.333 3.333s-3.333-1.492-3.333-3.333c0-1.841 1.492-3.333 3.333-3.333s3.333 1.492 3.333 3.333z"></path>
<path fill="#ffaa96" style="fill: var(--color16, #ffaa96)" d="M25.602 22.267c0 1.841-1.492 3.333-3.333 3.333s-3.333-1.492-3.333-3.333c0-1.841 1.492-3.333 3.333-3.333s3.333 1.492 3.333 3.333z"></path>
</symbol>
<symbol id="icon-close" viewBox="0 0 32 32">
<path fill="#d62845" style="fill: var(--color13, #d62845)" d="M31.291 0.733c-0.225-0.225-0.491-0.404-0.785-0.525s-0.608-0.184-0.926-0.184-0.633 0.063-0.926 0.184c-0.294 0.122-0.56 0.3-0.785 0.525l-11.869 11.845-11.869-11.869c-0.225-0.225-0.491-0.403-0.785-0.525s-0.608-0.184-0.926-0.184c-0.318 0-0.632 0.063-0.926 0.184s-0.56 0.3-0.785 0.525c-0.225 0.225-0.403 0.492-0.525 0.785s-0.184 0.608-0.184 0.926c0 0.318 0.063 0.632 0.184 0.926s0.3 0.56 0.525 0.785l11.869 11.869-11.869 11.869c-0.225 0.225-0.403 0.492-0.525 0.785s-0.184 0.608-0.184 0.926c0 0.318 0.063 0.632 0.184 0.926s0.3 0.56 0.525 0.785c0.225 0.225 0.492 0.403 0.785 0.525s0.608 0.184 0.926 0.184c0.318 0 0.632-0.063 0.926-0.184s0.56-0.3 0.785-0.525l11.869-11.869 11.869 11.869c0.225 0.225 0.492 0.403 0.785 0.525s0.608 0.184 0.926 0.184c0.318 0 0.632-0.063 0.926-0.184s0.56-0.3 0.785-0.525c0.225-0.225 0.403-0.491 0.525-0.785s0.184-0.608 0.184-0.926c0-0.318-0.063-0.632-0.184-0.926s-0.3-0.56-0.525-0.785l-11.869-11.869 11.869-11.869c0.922-0.922 0.922-2.476 0-3.398z"></path>
</symbol>
<symbol id="icon-gg_menu" viewBox="0 0 32 32">
<path fill="#d62845" style="fill: var(--color13, #d62845)" d="M2.667 8c0-0.354 0.14-0.693 0.391-0.943s0.589-0.391 0.943-0.391h24c0.354 0 0.693 0.14 0.943 0.391s0.391 0.589 0.391 0.943c0 0.354-0.14 0.693-0.391 0.943s-0.589 0.391-0.943 0.391h-24c-0.354 0-0.693-0.14-0.943-0.391s-0.391-0.589-0.391-0.943zM2.667 16.043c0-0.354 0.14-0.693 0.391-0.943s0.589-0.391 0.943-0.391h24c0.354 0 0.693 0.14 0.943 0.391s0.391 0.589 0.391 0.943c0 0.354-0.14 0.693-0.391 0.943s-0.589 0.391-0.943 0.391h-24c-0.354 0-0.693-0.14-0.943-0.391s-0.391-0.589-0.391-0.943zM4 22.753c-0.354 0-0.693 0.14-0.943 0.391s-0.391 0.589-0.391 0.943c0 0.354 0.14 0.693 0.391 0.943s0.589 0.391 0.943 0.391h24c0.354 0 0.693-0.14 0.943-0.391s0.391-0.589 0.391-0.943c0-0.354-0.14-0.693-0.391-0.943s-0.589-0.391-0.943-0.391h-24z"></path>
</symbol>
<symbol id="icon-puzzle1-icon" viewBox="0 0 17 32">
<path fill="#fea9dc" style="fill: var(--color18, #fea9dc)" opacity="0.5" d="M-11.036 13.028c0.099-0.005 0.197 0.015 0.285 0.059s0.163 0.109 0.219 0.191c0.343 0.505 0.812 0.908 1.361 1.17s1.158 0.373 1.768 0.323c0.61-0.050 1.199-0.26 1.709-0.61s0.923-0.825 1.198-1.381c0.258-0.521 0.387-1.095 0.375-1.673s-0.163-1.142-0.441-1.642c-0.278-0.501-0.674-0.923-1.154-1.229s-1.029-0.489-1.599-0.531c-0.098-0.007-0.193-0.039-0.275-0.093s-0.149-0.129-0.194-0.216c-0.045-0.088-0.067-0.186-0.065-0.286s0.030-0.197 0.081-0.284l3.167-5.486c0.236-0.409 0.622-0.709 1.072-0.835s0.929-0.066 1.329 0.165l5.164 2.981c0.18-0.633 0.488-1.223 0.904-1.733s0.931-0.929 1.513-1.23c0.581-0.301 1.216-0.477 1.865-0.518s1.295 0.055 1.9 0.281c0.605 0.226 1.155 0.578 1.614 1.033s0.818 1.003 1.054 1.609c0.236 0.606 0.343 1.258 0.316 1.913s-0.19 1.3-0.477 1.892c-0.226 0.464-0.523 0.89-0.881 1.261l5.164 2.981c0.401 0.231 0.691 0.616 0.808 1.069s0.049 0.937-0.187 1.346l-2.744 4.753c0.623 0.171 1.202 0.472 1.7 0.884s0.904 0.925 1.192 1.507c0.288 0.582 0.452 1.221 0.481 1.875s-0.077 1.309-0.311 1.925c-0.234 0.615-0.592 1.176-1.050 1.648s-1.007 0.844-1.612 1.093c-0.604 0.249-1.251 0.368-1.9 0.352s-1.284-0.17-1.866-0.449c-0.456-0.219-0.872-0.512-1.233-0.868l-2.744 4.753c-0.236 0.409-0.622 0.709-1.072 0.835s-0.929 0.066-1.329-0.166l-18.136-10.471c-0.401-0.231-0.691-0.616-0.808-1.069s-0.049-0.937 0.187-1.346l3.166-5.484c0.050-0.087 0.121-0.16 0.206-0.212s0.181-0.082 0.279-0.087zM-13.679 19.393c-0.079 0.136-0.101 0.298-0.062 0.449s0.136 0.279 0.269 0.356l18.136 10.471c0.134 0.077 0.293 0.097 0.443 0.055s0.279-0.142 0.357-0.278l3.166-5.485c0.050-0.087 0.121-0.16 0.206-0.212s0.181-0.082 0.279-0.087c0.098-0.005 0.196 0.015 0.284 0.059s0.163 0.109 0.219 0.19c0.321 0.473 0.754 0.858 1.259 1.12s1.070 0.394 1.642 0.385c0.573-0.009 1.137-0.16 1.643-0.44s0.939-0.678 1.261-1.162c0.344-0.516 0.55-1.112 0.597-1.728s-0.065-1.232-0.327-1.785c-0.261-0.553-0.663-1.026-1.164-1.37s-1.085-0.549-1.694-0.593c-0.098-0.007-0.192-0.040-0.274-0.094s-0.148-0.129-0.193-0.216c-0.045-0.088-0.067-0.186-0.064-0.285s0.030-0.197 0.080-0.284l3.167-5.486c0.079-0.136 0.101-0.298 0.062-0.449s-0.136-0.279-0.269-0.356l-5.88-3.395c-0.085-0.049-0.156-0.119-0.206-0.204s-0.079-0.181-0.082-0.281c-0.003-0.099 0.018-0.199 0.063-0.288s0.111-0.167 0.193-0.224c0.474-0.333 0.862-0.776 1.131-1.291s0.409-1.087 0.41-1.665c0-0.578-0.139-1.145-0.407-1.652s-0.655-0.937-1.129-1.254c-0.505-0.339-1.092-0.536-1.701-0.574s-1.221 0.087-1.773 0.361c-0.553 0.274-1.027 0.687-1.377 1.2s-0.562 1.106-0.617 1.722c-0.009 0.099-0.042 0.195-0.098 0.279s-0.13 0.152-0.218 0.199c-0.088 0.047-0.186 0.071-0.284 0.070s-0.195-0.028-0.28-0.077l-5.88-3.395c-0.134-0.077-0.293-0.097-0.443-0.055s-0.279 0.142-0.357 0.278l-2.744 4.753c0.489 0.134 0.951 0.347 1.371 0.63 0.529 0.366 0.976 0.841 1.311 1.393s0.552 1.171 0.637 1.817c0.085 0.646 0.036 1.305-0.144 1.935s-0.486 1.219-0.9 1.728c-0.414 0.509-0.927 0.927-1.505 1.229s-1.211 0.48-1.857 0.523c-0.646 0.043-1.291-0.049-1.896-0.271s-1.154-0.569-1.615-1.019l-2.744 4.753z"></path>
</symbol>
<symbol id="icon-puzzle-icon" viewBox="0 0 33 32">
<path fill="#aecaf5" style="fill: var(--color19, #aecaf5)" opacity="0.25" d="M28.808 6.9c0.967-1.58 0.668-3.953-2.178-5.694-2.506-1.533-4.971-1.288-6.132 0.61-0.678 1.108-0.536 1.889-0.443 2.406 0.050 0.273 0.065 0.391 0.016 0.471-0.081 0.132-0.129 0.211-0.596-0.050l-4.982-3.048c-1.916-1.172-4.526-0.682-5.585 1.049l-1.855 3.032c-0.438 0.786-0.294 1.529 0.376 1.94 0.382 0.233 0.797 0.189 1.2 0.147 0.539-0.055 1.15-0.119 1.967 0.38 1.386 0.848 2.163 2.888 0.871 4.999-1.307 2.136-3.711 2.711-5.052 1.891-0.809-0.495-1.019-1.102-1.205-1.638-0.139-0.402-0.282-0.818-0.672-1.056-0.67-0.41-1.398-0.2-1.908 0.564l-2.039 3.332c-1.11 1.816-0.407 4.519 1.476 5.67l5.008 3.064c0.777 0.433 1.538 0.288 1.941-0.371 0.242-0.396 0.171-0.788 0.108-1.135-0.085-0.464-0.171-0.942 0.318-1.742 0.878-1.435 2.755-1.56 4.782-0.32s2.771 2.969 1.893 4.404c-0.489 0.799-0.955 0.939-1.406 1.076-0.337 0.102-0.72 0.217-0.962 0.613-0.409 0.668-0.196 1.394 0.571 1.907l3.219 1.971c1.758 1.076 3.821 0.465 5.014-1.485l2.311-3.778c0.082-0.086 0.565-0.311 0.949-0.076 0.078 0.048 0.119 0.161 0.2 0.425 0.153 0.503 0.384 1.264 1.497 1.945 1.785 1.091 4.424 0.837 6.016-1.765 1.717-2.806 0.844-5.066-0.783-6.061-1.098-0.672-2.037-0.561-2.659-0.488-0.276 0.032-0.535 0.063-0.635 0.002-0.385-0.235-0.404-0.77-0.372-0.865l0.010-0.020 1.781-2.911c1.207-1.973 0.827-4.174-0.904-5.233l-3.204-1.96-0.031-0.022c-0.422-0.28-0.373-0.359-0.293-0.491 0.049-0.080 0.161-0.119 0.427-0.2 0.503-0.151 1.264-0.381 1.942-1.489zM26.584 7.476c-0.337 0.102-0.721 0.218-0.963 0.614-0.273 0.447-0.397 1.11 0.567 1.773l0.055 0.038 3.225 1.973c1.425 0.872 1.373 2.633 0.585 3.922l-1.805 2.951c-0.018 0.029-0.041 0.054-0.052 0.085-0.229 0.542-0.027 1.59 0.757 2.070 0.384 0.235 0.803 0.185 1.249 0.133 0.576-0.068 1.23-0.145 2.044 0.353 1.489 0.911 1.671 2.775 0.463 4.749-1.324 2.164-3.365 2.269-4.701 1.451-0.8-0.489-0.942-0.955-1.080-1.405-0.103-0.338-0.22-0.721-0.617-0.964-0.784-0.48-1.81-0.182-2.188 0.269-0.023 0.024-0.034 0.056-0.052 0.085l-2.333 3.813c-0.761 1.244-2.202 2.088-3.701 1.171l-3.204-1.96c-0.453-0.303-0.322-0.516-0.267-0.606 0.048-0.079 0.161-0.119 0.427-0.2 0.503-0.152 1.264-0.381 1.942-1.489 0.967-1.58 0.658-3.96-2.213-5.716-2.485-1.52-4.935-1.266-6.096 0.632-0.678 1.108-0.536 1.889-0.442 2.407 0.049 0.272 0.065 0.391 0.016 0.471-0.056 0.091-0.186 0.304-0.645 0.048l-4.991-3.054c-1.403-0.858-1.975-3.017-1.155-4.358l2.029-3.316c0.302-0.453 0.513-0.323 0.604-0.268 0.095 0.058 0.177 0.297 0.266 0.551 0.202 0.584 0.508 1.469 1.611 2.144 1.762 1.078 4.741 0.45 6.365-2.204 1.614-2.639 0.591-5.221-1.191-6.311-1.095-0.67-1.981-0.578-2.568-0.516-0.266 0.028-0.496 0.051-0.599-0.012-0.090-0.055-0.301-0.184-0.046-0.644l1.845-3.016c0.879-1.436 2.957-1.54 4.271-0.736l5.035 3.078c1.032 0.58 1.579 0.16 1.857-0.293 0.242-0.396 0.171-0.788 0.108-1.135-0.085-0.464-0.171-0.942 0.318-1.742 0.864-1.413 2.8-1.532 4.818-0.298 2.006 1.227 2.735 2.947 1.858 4.382-0.489 0.799-0.956 0.94-1.406 1.077z"></path>
</symbol>

<symbol id="icon-play-market" viewBox="12 9 306 91">
<g clip-path="url(#a)" filter="url(#b)">
    <path d="M306.667 9H23.333C17.074 9 12 14.037 12 20.25v67.5C12 93.963 17.074 99 23.333 99h283.334C312.926 99 318 93.963 318 87.75v-67.5C318 14.037 312.926 9 306.667 9Z"/>
    <path fill="#E94C6F" d="M306.667 10.8c2.525 0 4.946.996 6.731 2.768a9.413 9.413 0 0 1 2.789 6.682v67.5a9.413 9.413 0 0 1-2.789 6.682 9.554 9.554 0 0 1-6.731 2.768H23.333a9.556 9.556 0 0 1-6.731-2.768 9.415 9.415 0 0 1-2.789-6.682v-67.5a9.415 9.415 0 0 1 2.789-6.682 9.556 9.556 0 0 1 6.731-2.768h283.334Zm0-1.8H23.333a11.376 11.376 0 0 0-8.013 3.295A11.208 11.208 0 0 0 12 20.25v67.5c0 2.984 1.194 5.845 3.32 7.955A11.376 11.376 0 0 0 23.332 99h283.334c3.005 0 5.888-1.185 8.014-3.295A11.21 11.21 0 0 0 318 87.75v-67.5a11.21 11.21 0 0 0-3.319-7.955A11.379 11.379 0 0 0 306.667 9Z"/>
    <path fill="#000" stroke="#000" stroke-linecap="round" stroke-miterlimit="10" stroke-width=".411" d="M119.487 32.04a6.068 6.068 0 0 1-.387 2.423 6.12 6.12 0 0 1-1.313 2.078 6.615 6.615 0 0 1-4.987 1.98 6.847 6.847 0 0 1-2.716-.497 6.8 6.8 0 0 1-2.293-1.529 7.15 7.15 0 0 1-2.061-5.017 7.15 7.15 0 0 1 2.061-5.018 7.178 7.178 0 0 1 3.676-1.9 7.21 7.21 0 0 1 4.121.438c.817.333 1.546.85 2.131 1.508l-1.202 1.192a4.529 4.529 0 0 0-1.665-1.246 4.566 4.566 0 0 0-2.052-.374 5.472 5.472 0 0 0-2.544.647 5.42 5.42 0 0 0-1.942 1.754 5.36 5.36 0 0 0-.515 5.034c.334.817.866 1.54 1.547 2.106a5.481 5.481 0 0 0 4.986 1.052 5.448 5.448 0 0 0 2.276-1.3 4.302 4.302 0 0 0 1.133-2.745H112.8v-1.62h6.596c.052.342.082.688.091 1.035Zm10.378-5.625h-6.12v4.275h5.576v1.62h-5.576v4.275h6.12v1.665h-7.888v-13.5h7.888v1.665Zm7.438 11.835h-1.745V26.415h-3.808V24.75h9.452v1.665h-3.899V38.25Zm10.56 0v-13.5h1.746v13.5h-1.746Zm9.499 0h-1.745V26.415h-3.808V24.75h9.338v1.665h-3.785V38.25Zm21.489-1.755a7.09 7.09 0 0 1-9.973 0 7.259 7.259 0 0 1-1.995-4.995c0-1.856.713-3.643 1.995-4.995a6.636 6.636 0 0 1 2.274-1.549 6.683 6.683 0 0 1 2.712-.498 6.845 6.845 0 0 1 2.707.512 6.793 6.793 0 0 1 2.28 1.535 6.883 6.883 0 0 1 1.995 4.995 6.72 6.72 0 0 1-1.995 4.995Zm-8.681-1.125a5.195 5.195 0 0 0 3.694 1.534c.688 0 1.368-.136 2.003-.4a5.195 5.195 0 0 0 1.692-1.134 5.692 5.692 0 0 0 1.521-3.87 5.692 5.692 0 0 0-1.521-3.87 5.195 5.195 0 0 0-3.695-1.533 5.224 5.224 0 0 0-3.694 1.533 5.692 5.692 0 0 0-1.521 3.87c0 1.434.543 2.815 1.521 3.87Zm13.146 2.88v-13.5h2.108l6.619 10.507V24.75h1.745v13.5h-1.813l-6.913-11.003V38.25h-1.746Z"/>
<path fill="#000" d="M166.45 57.938a9.708 9.708 0 0 0-5.361 1.628 9.604 9.604 0 0 0-3.546 4.31 9.517 9.517 0 0 0-.536 5.539 9.56 9.56 0 0 0 2.654 4.901 9.675 9.675 0 0 0 4.95 2.612 9.723 9.723 0 0 0 5.578-.559 9.648 9.648 0 0 0 4.325-3.54 9.541 9.541 0 0 0 1.615-5.329 9.383 9.383 0 0 0-2.797-6.818 9.505 9.505 0 0 0-3.16-2.067 9.557 9.557 0 0 0-3.722-.677Zm0 15.367a5.884 5.884 0 0 1-3.353-.775 5.827 5.827 0 0 1-2.332-2.513 5.77 5.77 0 0 1 .995-6.456 5.855 5.855 0 0 1 2.983-1.707 5.886 5.886 0 0 1 3.432.255 5.842 5.842 0 0 1 2.694 2.128 5.78 5.78 0 0 1 1.021 3.263 5.523 5.523 0 0 1-1.487 4.041 5.609 5.609 0 0 1-3.953 1.764Zm-21.125-15.367a9.706 9.706 0 0 0-5.361 1.628 9.591 9.591 0 0 0-3.546 4.31 9.517 9.517 0 0 0-.537 5.539 9.568 9.568 0 0 0 2.654 4.901 9.682 9.682 0 0 0 4.951 2.612 9.719 9.719 0 0 0 5.577-.559 9.637 9.637 0 0 0 4.325-3.54 9.525 9.525 0 0 0 1.615-5.329 9.347 9.347 0 0 0-.7-3.691 9.416 9.416 0 0 0-2.096-3.127 9.505 9.505 0 0 0-3.16-2.067 9.564 9.564 0 0 0-3.722-.677Zm0 15.367a5.884 5.884 0 0 1-3.353-.775 5.821 5.821 0 0 1-2.332-2.513 5.761 5.761 0 0 1-.504-3.38 5.787 5.787 0 0 1 1.499-3.077 5.856 5.856 0 0 1 2.982-1.706 5.89 5.89 0 0 1 3.433.255 5.84 5.84 0 0 1 2.693 2.128 5.773 5.773 0 0 1 1.022 3.263 5.513 5.513 0 0 1-1.487 4.042 5.609 5.609 0 0 1-3.953 1.764Zm-25.115-12.42v4.05h9.792a8.452 8.452 0 0 1-2.267 5.108 10.015 10.015 0 0 1-3.468 2.282 10.081 10.081 0 0 1-4.102.688 10.923 10.923 0 0 1-7.694-3.164 10.76 10.76 0 0 1-3.186-7.636 10.76 10.76 0 0 1 3.186-7.637 10.923 10.923 0 0 1 7.694-3.163 10.559 10.559 0 0 1 7.434 2.902l2.879-2.857a14.29 14.29 0 0 0-4.718-3.075 14.372 14.372 0 0 0-5.55-1.02 15.082 15.082 0 0 0-5.91.96 14.992 14.992 0 0 0-5.059 3.182 14.866 14.866 0 0 0-3.4 4.894 14.792 14.792 0 0 0 3.4 16.544 14.992 14.992 0 0 0 5.059 3.181 15.084 15.084 0 0 0 5.91.961 13.848 13.848 0 0 0 5.673-.971 13.758 13.758 0 0 0 4.776-3.191 13.441 13.441 0 0 0 3.536-9.518c.008-.844-.06-1.688-.204-2.52H120.21Zm102.703 3.15a9.012 9.012 0 0 0-3.17-4.322 9.113 9.113 0 0 0-5.081-1.775 9.126 9.126 0 0 0-3.606.734 9.065 9.065 0 0 0-3.014 2.097 8.973 8.973 0 0 0-2.447 6.731 9.469 9.469 0 0 0 1.855 5.716 9.585 9.585 0 0 0 4.932 3.476 9.66 9.66 0 0 0 6.048-.147 9.577 9.577 0 0 0 4.755-3.712l-3.287-2.25a5.446 5.446 0 0 1-2.016 1.942c-.831.461-1.769.7-2.721.69a4.9 4.9 0 0 1-2.788-.733 4.854 4.854 0 0 1-1.882-2.17l12.898-5.287-.476-.99Zm-13.147 3.195a5.235 5.235 0 0 1 1.342-3.855 5.333 5.333 0 0 1 3.713-1.747 3.738 3.738 0 0 1 2.09.49 3.7 3.7 0 0 1 1.468 1.557l-8.613 3.555Zm-10.472 9.27h4.239V48.375h-4.239V76.5Zm-6.936-16.425h-.159a6.654 6.654 0 0 0-2.291-1.676 6.706 6.706 0 0 0-2.786-.574 9.689 9.689 0 0 0-6.524 2.962 9.55 9.55 0 0 0-2.664 6.612 9.55 9.55 0 0 0 2.664 6.611 9.69 9.69 0 0 0 6.524 2.963 6.57 6.57 0 0 0 2.792-.562 6.519 6.519 0 0 0 2.285-1.688h.159v1.372c0 3.668-1.972 5.625-5.145 5.625a5.371 5.371 0 0 1-2.957-.963 5.317 5.317 0 0 1-1.917-2.434l-3.672 1.507a9.013 9.013 0 0 0 3.385 4.153 9.116 9.116 0 0 0 5.161 1.517c4.964 0 9.066-2.902 9.066-9.967V58.5h-3.921v1.575Zm-4.873 13.23a5.862 5.862 0 0 1-3.898-1.819A5.782 5.782 0 0 1 182 67.511a5.78 5.78 0 0 1 1.587-3.974 5.862 5.862 0 0 1 3.898-1.82 5.453 5.453 0 0 1 2.094.517 5.41 5.41 0 0 1 1.724 1.288 5.36 5.36 0 0 1 1.35 3.978 5.335 5.335 0 0 1-1.333 4 5.42 5.42 0 0 1-3.835 1.805Zm55.284-24.93h-10.155V76.5h4.239V65.835h5.916a8.877 8.877 0 0 0 3.563-.475 8.838 8.838 0 0 0 3.076-1.848 8.769 8.769 0 0 0 2.077-2.913 8.706 8.706 0 0 0 0-6.988 8.769 8.769 0 0 0-2.077-2.913 8.836 8.836 0 0 0-3.076-1.847 8.875 8.875 0 0 0-3.563-.476Zm0 13.5h-5.916V52.29h6.006a4.878 4.878 0 0 1 3.43 1.41 4.809 4.809 0 0 1 1.421 3.405 4.798 4.798 0 0 1-1.421 3.405 4.88 4.88 0 0 1-3.43 1.41l-.09-.045Zm26.157-4.027a7.959 7.959 0 0 0-4.423 1.026 7.879 7.879 0 0 0-3.125 3.271l3.74 1.553a4.02 4.02 0 0 1 1.633-1.593 4.06 4.06 0 0 1 2.243-.455 4.11 4.11 0 0 1 3.032.868 4.033 4.033 0 0 1 1.501 2.755v.27a9.53 9.53 0 0 0-4.42-1.08c-4.034 0-8.16 2.25-8.16 6.345a6.489 6.489 0 0 0 2.205 4.576 6.557 6.557 0 0 0 2.257 1.293 6.6 6.6 0 0 0 2.588.318 6.042 6.042 0 0 0 3.071-.647 5.99 5.99 0 0 02.323-2.098h.136v2.25h4.08V65.678c0-4.928-3.762-7.785-8.59-7.785l-.091-.045Zm-.521 15.412c-1.383 0-3.31-.697-3.31-2.385 0-2.25 2.403-3.015 4.534-3.015a7.57 7.57 0 0 1 3.853.945 5.07 5.07 0 0 1-1.643 3.179 5.144 5.144 0 0 1-3.344 1.321l-.09-.045Zm24.072-14.76-4.851 12.195h-.136L282.458 58.5h-4.533l7.548 17.055-4.307 9.473h4.42L297.191 58.5h-4.714Zm-38.08 18h4.216V48.375h-4.216V76.5Z"/>
    <path fill="url(#c)" d="M35.665 25.965a4.479 4.479 0 0 0-1.065 3.15v49.77a4.345 4.345 0 0 0 1.065 3.15l.159.18 28.084-27.877v-.675L35.824 25.808l-.16.157Z"/>
    <path fill="url(#d)" d="m73.2 63.63-9.294-9.293v-.675L73.2 44.37l.204.135 11.129 6.255c3.173 1.777 3.173 4.702 0 6.502l-11.084 6.255-.25.113Z"/>
    <path fill="url(#e)" d="M73.472 63.495 63.907 54 35.664 82.035a3.69 3.69 0 0 0 4.692.158l33.116-18.698Z"/>
    <path fill="url(#f)" d="M73.472 44.505 40.356 25.83a3.667 3.667 0 0 0-4.692.135L63.907 54l9.565-9.495Z"/>
    <path fill="#000" d="M73.2 63.292 40.356 81.855a3.782 3.782 0 0 1-4.533 0l-.159.157.159.18a3.782 3.782 0 0 0 4.533 0l33.116-18.697-.272-.203Z" opacity=".2"/>
    <path fill="#000" d="M35.663 81.72a4.478 4.478 0 0 1-.998-3.173v.338a4.345 4.345 0 0 0 1.066 3.15l.158-.158-.226-.157Zm48.87-24.795-11.334 6.367.204.203 11.13-6.255a3.962 3.962 0 0 0 1.65-1.293A3.92 3.92 0 0 0 86.934 54a4.173 4.173 0 0 1-.85 1.746c-.417.509-.95.912-1.552 1.179Z" opacity=".12"/>
    <path fill="#fff" d="m40.355 26.145 44.177 24.93a4.21 4.21 0 0 1 1.553 1.179c.417.508.708 1.106.85 1.746a3.92 3.92 0 0 0-.753-1.947 3.962 3.962 0 0 0-1.65-1.293L40.355 25.83c-3.15-1.8-5.757-.315-5.757 3.285v.338c.068-3.6 2.606-5.085 5.757-3.308Z" opacity=".25"/>
  </g>
  <defs>
    <linearGradient id="c" x1="61.414" x2="23.66" y1="28.598" y2="66.631" gradientUnits="userSpaceOnUse">
      <stop stop-color="#00A0FF"/>
      <stop offset=".01" stop-color="#00A1FF"/>
      <stop offset=".26" stop-color="#00BEFF"/>
      <stop offset=".51" stop-color="#00D2FF"/>
      <stop offset=".76" stop-color="#00DFFF"/>
      <stop offset="1" stop-color="#00E3FF"/>
    </linearGradient>
    <linearGradient id="d" x1="88.681" x2="33.85" y1="54" y2="54" gradientUnits="userSpaceOnUse">
      <stop stop-color="#FFE000"/>
      <stop offset=".41" stop-color="#FFBD00"/>
      <stop offset=".78" stop-color="orange"/>
      <stop offset="1" stop-color="#FF9C00"/>
    </linearGradient>
    <linearGradient id="e" x1="68.281" x2="17.073" y1="59.175" y2="110.74" gradientUnits="userSpaceOnUse">
      <stop stop-color="#FF3A44"/>
      <stop offset="1" stop-color="#C31162"/>
    </linearGradient>
    <linearGradient id="f" x1="28.547" x2="51.406" y1="9.405" y2="32.434" gradientUnits="userSpaceOnUse">
      <stop stop-color="#32A071"/>
      <stop offset=".07" stop-color="#2DA771"/>
      <stop offset=".48" stop-color="#15CF74"/>
      <stop offset=".8" stop-color="#06E775"/>
      <stop offset="1" stop-color="#00F076"/>
    </linearGradient>
    <clipPath id="a">
      <path fill="#fff" d="M12 9h306v90H12z"/>
    </clipPath>
  </defs>
</symbol>
</defs>
</svg>
